<mxfile host="app.diagrams.net" modified="2021-09-25T15:29:39.577Z" agent="5.0 (X11; Linux x86_64) AppleWebKit/537.36 (KHTML, like Gecko) Chrome/91.0.4472.77 Safari/537.36" etag="qBfgrW0fykYdFbeWCmqz" version="15.3.2" type="github">
  <diagram id="vxqOsvS4zF9z3B9JkorM" name="Page-1">
    <mxGraphModel dx="4663" dy="1943" grid="1" gridSize="10" guides="1" tooltips="1" connect="1" arrows="1" fold="1" page="1" pageScale="1" pageWidth="827" pageHeight="1169" math="0" shadow="0">
      <root>
        <mxCell id="0" />
        <mxCell id="1" parent="0" />
        <mxCell id="HqNNQ10qHDL0JFHi53qa-1" value="" style="edgeStyle=orthogonalEdgeStyle;rounded=0;orthogonalLoop=1;jettySize=auto;html=1;" edge="1" parent="1" source="HqNNQ10qHDL0JFHi53qa-2" target="HqNNQ10qHDL0JFHi53qa-8">
          <mxGeometry relative="1" as="geometry" />
        </mxCell>
        <mxCell id="HqNNQ10qHDL0JFHi53qa-2" value="Checked Exception" style="rounded=1;whiteSpace=wrap;html=1;gradientColor=#d5739d;fillColor=#e6d0de;strokeColor=#996185;" vertex="1" parent="1">
          <mxGeometry x="1230" y="-740" width="120" height="60" as="geometry" />
        </mxCell>
        <mxCell id="HqNNQ10qHDL0JFHi53qa-3" value="" style="edgeStyle=orthogonalEdgeStyle;rounded=0;orthogonalLoop=1;jettySize=auto;html=1;" edge="1" parent="1" source="HqNNQ10qHDL0JFHi53qa-4" target="HqNNQ10qHDL0JFHi53qa-2">
          <mxGeometry relative="1" as="geometry" />
        </mxCell>
        <mxCell id="HqNNQ10qHDL0JFHi53qa-4" value="Exception" style="rounded=1;whiteSpace=wrap;html=1;gradientColor=#ea6b66;fillColor=#f8cecc;strokeColor=#b85450;" vertex="1" parent="1">
          <mxGeometry x="1000" y="-740" width="120" height="60" as="geometry" />
        </mxCell>
        <mxCell id="HqNNQ10qHDL0JFHi53qa-5" value="" style="edgeStyle=orthogonalEdgeStyle;rounded=0;orthogonalLoop=1;jettySize=auto;html=1;" edge="1" parent="1" source="HqNNQ10qHDL0JFHi53qa-6" target="HqNNQ10qHDL0JFHi53qa-9">
          <mxGeometry relative="1" as="geometry" />
        </mxCell>
        <mxCell id="HqNNQ10qHDL0JFHi53qa-6" value="Unchecked Exception" style="rounded=1;whiteSpace=wrap;html=1;gradientColor=#d5739d;fillColor=#e6d0de;strokeColor=#996185;" vertex="1" parent="1">
          <mxGeometry x="1234" y="-555" width="120" height="60" as="geometry" />
        </mxCell>
        <mxCell id="HqNNQ10qHDL0JFHi53qa-7" value="" style="endArrow=classic;html=1;exitX=1;exitY=1;exitDx=0;exitDy=0;entryX=0;entryY=0.5;entryDx=0;entryDy=0;" edge="1" parent="1" source="HqNNQ10qHDL0JFHi53qa-4" target="HqNNQ10qHDL0JFHi53qa-6">
          <mxGeometry width="50" height="50" relative="1" as="geometry">
            <mxPoint x="950" y="-550" as="sourcePoint" />
            <mxPoint x="1000" y="-600" as="targetPoint" />
          </mxGeometry>
        </mxCell>
        <mxCell id="HqNNQ10qHDL0JFHi53qa-8" value="Extend Exception" style="rounded=0;whiteSpace=wrap;html=1;" vertex="1" parent="1">
          <mxGeometry x="1430" y="-740" width="120" height="60" as="geometry" />
        </mxCell>
        <mxCell id="HqNNQ10qHDL0JFHi53qa-9" value="Extend RuntimeException" style="rounded=0;whiteSpace=wrap;html=1;" vertex="1" parent="1">
          <mxGeometry x="1434" y="-555" width="120" height="60" as="geometry" />
        </mxCell>
        <mxCell id="HqNNQ10qHDL0JFHi53qa-10" value="Has to be explicitly declarein throws part" style="rounded=0;whiteSpace=wrap;html=1;" vertex="1" parent="1">
          <mxGeometry x="1430" y="-800" width="120" height="60" as="geometry" />
        </mxCell>
        <mxCell id="HqNNQ10qHDL0JFHi53qa-11" value="Explicitly handled by code that invoke the method" style="rounded=0;whiteSpace=wrap;html=1;" vertex="1" parent="1">
          <mxGeometry x="1430" y="-680" width="120" height="60" as="geometry" />
        </mxCell>
        <mxCell id="HqNNQ10qHDL0JFHi53qa-12" value="" style="edgeStyle=orthogonalEdgeStyle;rounded=0;orthogonalLoop=1;jettySize=auto;html=1;" edge="1" parent="1" source="HqNNQ10qHDL0JFHi53qa-15" target="HqNNQ10qHDL0JFHi53qa-17">
          <mxGeometry relative="1" as="geometry" />
        </mxCell>
        <mxCell id="HqNNQ10qHDL0JFHi53qa-13" value="" style="edgeStyle=orthogonalEdgeStyle;rounded=0;orthogonalLoop=1;jettySize=auto;html=1;" edge="1" parent="1" source="HqNNQ10qHDL0JFHi53qa-15" target="HqNNQ10qHDL0JFHi53qa-21">
          <mxGeometry relative="1" as="geometry" />
        </mxCell>
        <mxCell id="HqNNQ10qHDL0JFHi53qa-14" value="" style="edgeStyle=orthogonalEdgeStyle;rounded=0;orthogonalLoop=1;jettySize=auto;html=1;" edge="1" parent="1" source="HqNNQ10qHDL0JFHi53qa-15" target="HqNNQ10qHDL0JFHi53qa-48">
          <mxGeometry relative="1" as="geometry" />
        </mxCell>
        <mxCell id="HqNNQ10qHDL0JFHi53qa-15" value="DataSource" style="rounded=1;whiteSpace=wrap;html=1;gradientColor=#ea6b66;fillColor=#f8cecc;strokeColor=#b85450;" vertex="1" parent="1">
          <mxGeometry x="-240" y="370" width="120" height="60" as="geometry" />
        </mxCell>
        <mxCell id="HqNNQ10qHDL0JFHi53qa-16" value="" style="edgeStyle=orthogonalEdgeStyle;rounded=0;orthogonalLoop=1;jettySize=auto;html=1;" edge="1" parent="1" source="HqNNQ10qHDL0JFHi53qa-17" target="HqNNQ10qHDL0JFHi53qa-37">
          <mxGeometry relative="1" as="geometry" />
        </mxCell>
        <mxCell id="HqNNQ10qHDL0JFHi53qa-17" value="Config" style="rounded=1;whiteSpace=wrap;html=1;gradientColor=#d5739d;fillColor=#e6d0de;strokeColor=#996185;" vertex="1" parent="1">
          <mxGeometry x="300" y="370" width="120" height="60" as="geometry" />
        </mxCell>
        <mxCell id="HqNNQ10qHDL0JFHi53qa-18" value="@Configuration" style="rounded=0;whiteSpace=wrap;html=1;" vertex="1" parent="1">
          <mxGeometry x="680" y="370" width="120" height="60" as="geometry" />
        </mxCell>
        <mxCell id="HqNNQ10qHDL0JFHi53qa-19" value="DataSource Bean" style="rounded=0;whiteSpace=wrap;html=1;" vertex="1" parent="1">
          <mxGeometry x="680" y="310" width="120" height="60" as="geometry" />
        </mxCell>
        <mxCell id="HqNNQ10qHDL0JFHi53qa-20" value="" style="edgeStyle=orthogonalEdgeStyle;rounded=0;orthogonalLoop=1;jettySize=auto;html=1;" edge="1" parent="1" source="HqNNQ10qHDL0JFHi53qa-21" target="HqNNQ10qHDL0JFHi53qa-22">
          <mxGeometry relative="1" as="geometry" />
        </mxCell>
        <mxCell id="HqNNQ10qHDL0JFHi53qa-21" value="Type" style="rounded=1;whiteSpace=wrap;html=1;gradientColor=#d5739d;fillColor=#e6d0de;strokeColor=#996185;" vertex="1" parent="1">
          <mxGeometry x="-240" y="560" width="120" height="60" as="geometry" />
        </mxCell>
        <mxCell id="HqNNQ10qHDL0JFHi53qa-22" value="DriverManagerDataSource – basic JDBC driver connection source" style="rounded=0;whiteSpace=wrap;html=1;strokeColor=default;" vertex="1" parent="1">
          <mxGeometry x="-40" y="560" width="200" height="60" as="geometry" />
        </mxCell>
        <mxCell id="HqNNQ10qHDL0JFHi53qa-23" value="BasicDataSource – Apache DBCP for Connection Pooling" style="rounded=0;whiteSpace=wrap;html=1;strokeColor=default;" vertex="1" parent="1">
          <mxGeometry x="-40" y="620" width="200" height="60" as="geometry" />
        </mxCell>
        <mxCell id="HqNNQ10qHDL0JFHi53qa-24" value="ComboPooledDataSource - C3P0 for Connection Pool" style="rounded=0;whiteSpace=wrap;html=1;strokeColor=default;" vertex="1" parent="1">
          <mxGeometry x="-40" y="680" width="200" height="60" as="geometry" />
        </mxCell>
        <mxCell id="HqNNQ10qHDL0JFHi53qa-25" value="SmartDataSource" style="rounded=0;whiteSpace=wrap;html=1;strokeColor=default;" vertex="1" parent="1">
          <mxGeometry x="-40" y="500" width="200" height="60" as="geometry" />
        </mxCell>
        <mxCell id="HqNNQ10qHDL0JFHi53qa-26" value="AbstractDataSource" style="rounded=0;whiteSpace=wrap;html=1;strokeColor=default;" vertex="1" parent="1">
          <mxGeometry x="-40" y="740" width="200" height="60" as="geometry" />
        </mxCell>
        <mxCell id="HqNNQ10qHDL0JFHi53qa-27" value="SingleConnectionDataSource" style="rounded=0;whiteSpace=wrap;html=1;strokeColor=default;" vertex="1" parent="1">
          <mxGeometry x="-40" y="440" width="200" height="60" as="geometry" />
        </mxCell>
        <mxCell id="HqNNQ10qHDL0JFHi53qa-28" value="TransactionAwareDataSourceProxy" style="rounded=0;whiteSpace=wrap;html=1;strokeColor=default;" vertex="1" parent="1">
          <mxGeometry x="-40" y="800" width="200" height="60" as="geometry" />
        </mxCell>
        <mxCell id="HqNNQ10qHDL0JFHi53qa-29" value="DataSourceTransactionManager" style="rounded=0;whiteSpace=wrap;html=1;strokeColor=default;" vertex="1" parent="1">
          <mxGeometry x="-40" y="860" width="200" height="60" as="geometry" />
        </mxCell>
        <mxCell id="HqNNQ10qHDL0JFHi53qa-30" value="" style="edgeStyle=orthogonalEdgeStyle;rounded=0;orthogonalLoop=1;jettySize=auto;html=1;" edge="1" parent="1" source="HqNNQ10qHDL0JFHi53qa-31" target="HqNNQ10qHDL0JFHi53qa-32">
          <mxGeometry relative="1" as="geometry" />
        </mxCell>
        <mxCell id="HqNNQ10qHDL0JFHi53qa-31" value="SpringBoot" style="rounded=1;whiteSpace=wrap;html=1;gradientColor=#7ea6e0;fillColor=#dae8fc;strokeColor=#6c8ebf;" vertex="1" parent="1">
          <mxGeometry x="480" y="440" width="120" height="60" as="geometry" />
        </mxCell>
        <mxCell id="HqNNQ10qHDL0JFHi53qa-32" value="application.properties" style="rounded=0;whiteSpace=wrap;html=1;" vertex="1" parent="1">
          <mxGeometry x="680" y="440" width="120" height="60" as="geometry" />
        </mxCell>
        <mxCell id="HqNNQ10qHDL0JFHi53qa-33" value="" style="edgeStyle=orthogonalEdgeStyle;rounded=0;orthogonalLoop=1;jettySize=auto;html=1;" edge="1" parent="1" source="HqNNQ10qHDL0JFHi53qa-34" target="HqNNQ10qHDL0JFHi53qa-35">
          <mxGeometry relative="1" as="geometry" />
        </mxCell>
        <mxCell id="HqNNQ10qHDL0JFHi53qa-34" value="Application Server" style="rounded=1;whiteSpace=wrap;html=1;gradientColor=#7ea6e0;fillColor=#dae8fc;strokeColor=#6c8ebf;" vertex="1" parent="1">
          <mxGeometry x="480" y="240" width="120" height="60" as="geometry" />
        </mxCell>
        <mxCell id="HqNNQ10qHDL0JFHi53qa-35" value="fetched from JNDI" style="rounded=0;whiteSpace=wrap;html=1;" vertex="1" parent="1">
          <mxGeometry x="680" y="240" width="120" height="60" as="geometry" />
        </mxCell>
        <mxCell id="HqNNQ10qHDL0JFHi53qa-36" value="" style="edgeStyle=orthogonalEdgeStyle;rounded=0;orthogonalLoop=1;jettySize=auto;html=1;entryX=0;entryY=0.5;entryDx=0;entryDy=0;" edge="1" parent="1" source="HqNNQ10qHDL0JFHi53qa-37" target="HqNNQ10qHDL0JFHi53qa-18">
          <mxGeometry relative="1" as="geometry" />
        </mxCell>
        <mxCell id="HqNNQ10qHDL0JFHi53qa-37" value="Standalone" style="rounded=1;whiteSpace=wrap;html=1;gradientColor=#7ea6e0;fillColor=#dae8fc;strokeColor=#6c8ebf;" vertex="1" parent="1">
          <mxGeometry x="480" y="370" width="120" height="60" as="geometry" />
        </mxCell>
        <mxCell id="HqNNQ10qHDL0JFHi53qa-38" value="" style="endArrow=classic;html=1;exitX=1;exitY=0.5;exitDx=0;exitDy=0;entryX=0;entryY=0.5;entryDx=0;entryDy=0;" edge="1" parent="1" source="HqNNQ10qHDL0JFHi53qa-17" target="HqNNQ10qHDL0JFHi53qa-34">
          <mxGeometry width="50" height="50" relative="1" as="geometry">
            <mxPoint x="420" y="540" as="sourcePoint" />
            <mxPoint x="470" y="490" as="targetPoint" />
          </mxGeometry>
        </mxCell>
        <mxCell id="HqNNQ10qHDL0JFHi53qa-39" value="" style="endArrow=classic;html=1;exitX=1;exitY=0.5;exitDx=0;exitDy=0;entryX=0;entryY=0.5;entryDx=0;entryDy=0;" edge="1" parent="1" source="HqNNQ10qHDL0JFHi53qa-17" target="HqNNQ10qHDL0JFHi53qa-31">
          <mxGeometry width="50" height="50" relative="1" as="geometry">
            <mxPoint x="420" y="540" as="sourcePoint" />
            <mxPoint x="240" y="470" as="targetPoint" />
          </mxGeometry>
        </mxCell>
        <mxCell id="HqNNQ10qHDL0JFHi53qa-40" value="" style="edgeStyle=orthogonalEdgeStyle;rounded=0;orthogonalLoop=1;jettySize=auto;html=1;" edge="1" parent="1" source="HqNNQ10qHDL0JFHi53qa-41" target="HqNNQ10qHDL0JFHi53qa-44">
          <mxGeometry relative="1" as="geometry" />
        </mxCell>
        <mxCell id="HqNNQ10qHDL0JFHi53qa-41" value="Development/Testing" style="rounded=1;whiteSpace=wrap;html=1;gradientColor=#7ea6e0;fillColor=#dae8fc;strokeColor=#6c8ebf;" vertex="1" parent="1">
          <mxGeometry x="490" y="160" width="120" height="60" as="geometry" />
        </mxCell>
        <mxCell id="HqNNQ10qHDL0JFHi53qa-42" value="EmbeddedDatabaseBuilder" style="rounded=0;whiteSpace=wrap;html=1;" vertex="1" parent="1">
          <mxGeometry x="680" y="40" width="190" height="60" as="geometry" />
        </mxCell>
        <mxCell id="HqNNQ10qHDL0JFHi53qa-43" value="DataSourceInitializer" style="rounded=0;whiteSpace=wrap;html=1;" vertex="1" parent="1">
          <mxGeometry x="680" y="100" width="190" height="60" as="geometry" />
        </mxCell>
        <mxCell id="HqNNQ10qHDL0JFHi53qa-44" value="ResourceDatabasePopulator" style="rounded=0;whiteSpace=wrap;html=1;" vertex="1" parent="1">
          <mxGeometry x="680" y="160" width="190" height="60" as="geometry" />
        </mxCell>
        <mxCell id="HqNNQ10qHDL0JFHi53qa-45" value="" style="endArrow=classic;html=1;exitX=1;exitY=0.5;exitDx=0;exitDy=0;entryX=0;entryY=0.5;entryDx=0;entryDy=0;" edge="1" parent="1" source="HqNNQ10qHDL0JFHi53qa-17" target="HqNNQ10qHDL0JFHi53qa-41">
          <mxGeometry width="50" height="50" relative="1" as="geometry">
            <mxPoint x="170" y="330" as="sourcePoint" />
            <mxPoint x="220" y="280" as="targetPoint" />
          </mxGeometry>
        </mxCell>
        <mxCell id="HqNNQ10qHDL0JFHi53qa-46" value="" style="edgeStyle=orthogonalEdgeStyle;rounded=0;orthogonalLoop=1;jettySize=auto;html=1;" edge="1" parent="1" source="HqNNQ10qHDL0JFHi53qa-48" target="HqNNQ10qHDL0JFHi53qa-50">
          <mxGeometry relative="1" as="geometry" />
        </mxCell>
        <mxCell id="HqNNQ10qHDL0JFHi53qa-47" value="" style="edgeStyle=orthogonalEdgeStyle;rounded=0;orthogonalLoop=1;jettySize=auto;html=1;" edge="1" parent="1" source="HqNNQ10qHDL0JFHi53qa-48" target="HqNNQ10qHDL0JFHi53qa-58">
          <mxGeometry relative="1" as="geometry" />
        </mxCell>
        <mxCell id="HqNNQ10qHDL0JFHi53qa-48" value="JDBC Template" style="whiteSpace=wrap;html=1;rounded=1;strokeColor=#996185;fillColor=#e6d0de;gradientColor=#d5739d;" vertex="1" parent="1">
          <mxGeometry x="-440" y="370" width="120" height="60" as="geometry" />
        </mxCell>
        <mxCell id="HqNNQ10qHDL0JFHi53qa-49" value="" style="edgeStyle=orthogonalEdgeStyle;rounded=0;orthogonalLoop=1;jettySize=auto;html=1;" edge="1" parent="1" source="HqNNQ10qHDL0JFHi53qa-50" target="HqNNQ10qHDL0JFHi53qa-53">
          <mxGeometry relative="1" as="geometry" />
        </mxCell>
        <mxCell id="HqNNQ10qHDL0JFHi53qa-50" value="Template" style="rounded=1;whiteSpace=wrap;html=1;strokeColor=#6c8ebf;gradientColor=#7ea6e0;fillColor=#dae8fc;" vertex="1" parent="1">
          <mxGeometry x="-440" y="510" width="120" height="60" as="geometry" />
        </mxCell>
        <mxCell id="HqNNQ10qHDL0JFHi53qa-51" value="" style="group" vertex="1" connectable="0" parent="1">
          <mxGeometry x="-560" y="640" width="410" height="60" as="geometry" />
        </mxCell>
        <mxCell id="HqNNQ10qHDL0JFHi53qa-52" value="Behavioral design pattern" style="rounded=0;whiteSpace=wrap;html=1;strokeColor=default;" vertex="1" parent="HqNNQ10qHDL0JFHi53qa-51">
          <mxGeometry width="120" height="60" as="geometry" />
        </mxCell>
        <mxCell id="HqNNQ10qHDL0JFHi53qa-53" value="Encapsulate algorithm/main flow with it steps" style="rounded=0;whiteSpace=wrap;html=1;strokeColor=default;" vertex="1" parent="HqNNQ10qHDL0JFHi53qa-51">
          <mxGeometry x="120" width="120" height="60" as="geometry" />
        </mxCell>
        <mxCell id="HqNNQ10qHDL0JFHi53qa-54" value="&lt;div&gt;In a way to achieve steps&lt;/div&gt;&lt;div&gt;customization and shared code reusability&lt;/div&gt;" style="rounded=0;whiteSpace=wrap;html=1;strokeColor=default;" vertex="1" parent="HqNNQ10qHDL0JFHi53qa-51">
          <mxGeometry x="240" width="170" height="60" as="geometry" />
        </mxCell>
        <mxCell id="HqNNQ10qHDL0JFHi53qa-55" value="It&#39;s using abstract class to define main flow with share code" style="rounded=0;whiteSpace=wrap;html=1;strokeColor=default;" vertex="1" parent="1">
          <mxGeometry x="-560" y="700" width="120" height="60" as="geometry" />
        </mxCell>
        <mxCell id="HqNNQ10qHDL0JFHi53qa-56" value="Child class will customize step of the algorithm" style="rounded=0;whiteSpace=wrap;html=1;strokeColor=default;" vertex="1" parent="1">
          <mxGeometry x="-440" y="700" width="120" height="60" as="geometry" />
        </mxCell>
        <mxCell id="HqNNQ10qHDL0JFHi53qa-57" value="" style="group" vertex="1" connectable="0" parent="1">
          <mxGeometry x="-827" y="380" width="190" height="500" as="geometry" />
        </mxCell>
        <mxCell id="HqNNQ10qHDL0JFHi53qa-58" value="Simplify use of JDBC&lt;br&gt;by providing implementation of JDBC workflow" style="whiteSpace=wrap;html=1;rounded=0;" vertex="1" parent="HqNNQ10qHDL0JFHi53qa-57">
          <mxGeometry width="190" height="60" as="geometry" />
        </mxCell>
        <mxCell id="HqNNQ10qHDL0JFHi53qa-59" value="Application just have to provide SQL statements and result extact" style="whiteSpace=wrap;html=1;rounded=0;" vertex="1" parent="HqNNQ10qHDL0JFHi53qa-57">
          <mxGeometry y="60" width="190" height="60" as="geometry" />
        </mxCell>
        <mxCell id="HqNNQ10qHDL0JFHi53qa-60" value="PreparedStatementCreator" style="whiteSpace=wrap;html=1;rounded=0;" vertex="1" parent="HqNNQ10qHDL0JFHi53qa-57">
          <mxGeometry y="260" width="190" height="60" as="geometry" />
        </mxCell>
        <mxCell id="HqNNQ10qHDL0JFHi53qa-61" value="ResultSetExtractor" style="whiteSpace=wrap;html=1;rounded=0;" vertex="1" parent="HqNNQ10qHDL0JFHi53qa-57">
          <mxGeometry y="440" width="190" height="60" as="geometry" />
        </mxCell>
        <mxCell id="HqNNQ10qHDL0JFHi53qa-62" value="PreparedStatementSetter" style="whiteSpace=wrap;html=1;rounded=0;" vertex="1" parent="HqNNQ10qHDL0JFHi53qa-57">
          <mxGeometry y="320" width="190" height="60" as="geometry" />
        </mxCell>
        <mxCell id="HqNNQ10qHDL0JFHi53qa-63" value="RowMapper" style="whiteSpace=wrap;html=1;rounded=0;" vertex="1" parent="HqNNQ10qHDL0JFHi53qa-57">
          <mxGeometry y="380" width="190" height="60" as="geometry" />
        </mxCell>
        <mxCell id="HqNNQ10qHDL0JFHi53qa-64" value="" style="edgeStyle=orthogonalEdgeStyle;rounded=0;orthogonalLoop=1;jettySize=auto;html=1;" edge="1" parent="HqNNQ10qHDL0JFHi53qa-57" source="HqNNQ10qHDL0JFHi53qa-65">
          <mxGeometry relative="1" as="geometry">
            <mxPoint x="95" y="260" as="targetPoint" />
          </mxGeometry>
        </mxCell>
        <mxCell id="HqNNQ10qHDL0JFHi53qa-65" value="Step" style="whiteSpace=wrap;html=1;rounded=1;gradientColor=#7ea6e0;fillColor=#dae8fc;strokeColor=#6c8ebf;" vertex="1" parent="HqNNQ10qHDL0JFHi53qa-57">
          <mxGeometry y="160" width="190" height="60" as="geometry" />
        </mxCell>
        <mxCell id="HqNNQ10qHDL0JFHi53qa-66" value="" style="edgeStyle=orthogonalEdgeStyle;rounded=0;orthogonalLoop=1;jettySize=auto;html=1;" edge="1" parent="HqNNQ10qHDL0JFHi53qa-57" source="HqNNQ10qHDL0JFHi53qa-59" target="HqNNQ10qHDL0JFHi53qa-65">
          <mxGeometry relative="1" as="geometry" />
        </mxCell>
        <mxCell id="HqNNQ10qHDL0JFHi53qa-67" value="Interface" style="whiteSpace=wrap;html=1;rounded=1;gradientColor=#97d077;fillColor=#d5e8d4;strokeColor=#82b366;" vertex="1" parent="1">
          <mxGeometry x="-1890" y="540" width="190" height="60" as="geometry" />
        </mxCell>
        <mxCell id="HqNNQ10qHDL0JFHi53qa-68" value="" style="edgeStyle=orthogonalEdgeStyle;rounded=0;orthogonalLoop=1;jettySize=auto;html=1;" edge="1" parent="1" source="HqNNQ10qHDL0JFHi53qa-65" target="HqNNQ10qHDL0JFHi53qa-67">
          <mxGeometry relative="1" as="geometry" />
        </mxCell>
        <mxCell id="HqNNQ10qHDL0JFHi53qa-69" value="" style="edgeStyle=orthogonalEdgeStyle;rounded=0;orthogonalLoop=1;jettySize=auto;html=1;" edge="1" parent="1" source="HqNNQ10qHDL0JFHi53qa-70" target="HqNNQ10qHDL0JFHi53qa-75">
          <mxGeometry relative="1" as="geometry" />
        </mxCell>
        <mxCell id="HqNNQ10qHDL0JFHi53qa-70" value="RowMapper" style="whiteSpace=wrap;html=1;rounded=0;" vertex="1" parent="1">
          <mxGeometry x="-2153" y="335" width="190" height="60" as="geometry" />
        </mxCell>
        <mxCell id="HqNNQ10qHDL0JFHi53qa-71" value="" style="edgeStyle=orthogonalEdgeStyle;rounded=0;orthogonalLoop=1;jettySize=auto;html=1;" edge="1" parent="1" source="HqNNQ10qHDL0JFHi53qa-72" target="HqNNQ10qHDL0JFHi53qa-76">
          <mxGeometry relative="1" as="geometry" />
        </mxCell>
        <mxCell id="HqNNQ10qHDL0JFHi53qa-72" value="RowCallbackHandler" style="whiteSpace=wrap;html=1;rounded=0;" vertex="1" parent="1">
          <mxGeometry x="-2153" y="395" width="190" height="60" as="geometry" />
        </mxCell>
        <mxCell id="HqNNQ10qHDL0JFHi53qa-73" value="" style="edgeStyle=orthogonalEdgeStyle;rounded=0;orthogonalLoop=1;jettySize=auto;html=1;" edge="1" parent="1" source="HqNNQ10qHDL0JFHi53qa-74" target="HqNNQ10qHDL0JFHi53qa-77">
          <mxGeometry relative="1" as="geometry" />
        </mxCell>
        <mxCell id="HqNNQ10qHDL0JFHi53qa-74" value="ResultSetExtractor" style="whiteSpace=wrap;html=1;rounded=0;" vertex="1" parent="1">
          <mxGeometry x="-2153" y="455" width="190" height="60" as="geometry" />
        </mxCell>
        <mxCell id="HqNNQ10qHDL0JFHi53qa-75" value="Map result to Object using ResultSet.get*/ stateless" style="whiteSpace=wrap;html=1;rounded=0;" vertex="1" parent="1">
          <mxGeometry x="-2503" y="335" width="270" height="60" as="geometry" />
        </mxCell>
        <mxCell id="HqNNQ10qHDL0JFHi53qa-76" value="Extract value from current row, stateful, it keeps accumulated data, process method will not return value, method will save value into object field" style="whiteSpace=wrap;html=1;rounded=0;" vertex="1" parent="1">
          <mxGeometry x="-2503" y="395" width="270" height="60" as="geometry" />
        </mxCell>
        <mxCell id="HqNNQ10qHDL0JFHi53qa-77" value="Processing entire result set, call ResultSet.next(), stateless" style="whiteSpace=wrap;html=1;rounded=0;" vertex="1" parent="1">
          <mxGeometry x="-2503" y="455" width="270" height="60" as="geometry" />
        </mxCell>
        <mxCell id="HqNNQ10qHDL0JFHi53qa-78" value="" style="endArrow=classic;html=1;exitX=0;exitY=0.5;exitDx=0;exitDy=0;entryX=1;entryY=0.5;entryDx=0;entryDy=0;" edge="1" parent="1" source="HqNNQ10qHDL0JFHi53qa-67" target="HqNNQ10qHDL0JFHi53qa-72">
          <mxGeometry width="50" height="50" relative="1" as="geometry">
            <mxPoint x="-2063" y="635" as="sourcePoint" />
            <mxPoint x="-2013" y="585" as="targetPoint" />
          </mxGeometry>
        </mxCell>
        <mxCell id="HqNNQ10qHDL0JFHi53qa-79" value="PreparedStatementCreator" style="whiteSpace=wrap;html=1;rounded=0;" vertex="1" parent="1">
          <mxGeometry x="-2153" y="535" width="190" height="60" as="geometry" />
        </mxCell>
        <mxCell id="HqNNQ10qHDL0JFHi53qa-80" value="PreparedStatementSetter" style="whiteSpace=wrap;html=1;rounded=0;" vertex="1" parent="1">
          <mxGeometry x="-2153" y="595" width="190" height="60" as="geometry" />
        </mxCell>
        <mxCell id="HqNNQ10qHDL0JFHi53qa-81" value="CallableStatementCreator" style="whiteSpace=wrap;html=1;rounded=0;" vertex="1" parent="1">
          <mxGeometry x="-2153" y="745" width="190" height="60" as="geometry" />
        </mxCell>
        <mxCell id="HqNNQ10qHDL0JFHi53qa-82" value="PreparedStatementCallback" style="whiteSpace=wrap;html=1;rounded=0;" vertex="1" parent="1">
          <mxGeometry x="-2153" y="655" width="190" height="60" as="geometry" />
        </mxCell>
        <mxCell id="HqNNQ10qHDL0JFHi53qa-83" value="CallableStatementCallback" style="whiteSpace=wrap;html=1;rounded=0;" vertex="1" parent="1">
          <mxGeometry x="-2153" y="805" width="190" height="60" as="geometry" />
        </mxCell>
        <mxCell id="HqNNQ10qHDL0JFHi53qa-84" value="" style="endArrow=classic;html=1;exitX=0;exitY=0.5;exitDx=0;exitDy=0;entryX=1;entryY=0.5;entryDx=0;entryDy=0;" edge="1" parent="1" source="HqNNQ10qHDL0JFHi53qa-67" target="HqNNQ10qHDL0JFHi53qa-80">
          <mxGeometry width="50" height="50" relative="1" as="geometry">
            <mxPoint x="-1893" y="725" as="sourcePoint" />
            <mxPoint x="-1843" y="675" as="targetPoint" />
          </mxGeometry>
        </mxCell>
        <mxCell id="HqNNQ10qHDL0JFHi53qa-85" value="" style="endArrow=classic;html=1;exitX=0;exitY=0.5;exitDx=0;exitDy=0;entryX=1;entryY=0;entryDx=0;entryDy=0;" edge="1" parent="1" source="HqNNQ10qHDL0JFHi53qa-67" target="HqNNQ10qHDL0JFHi53qa-83">
          <mxGeometry width="50" height="50" relative="1" as="geometry">
            <mxPoint x="-1873" y="745" as="sourcePoint" />
            <mxPoint x="-1823" y="695" as="targetPoint" />
          </mxGeometry>
        </mxCell>
        <mxCell id="HqNNQ10qHDL0JFHi53qa-86" value="Plain sql statement" style="whiteSpace=wrap;html=1;rounded=0;gradientColor=#b3b3b3;fillColor=#f5f5f5;strokeColor=#666666;" vertex="1" parent="1">
          <mxGeometry x="-2153" y="240" width="190" height="60" as="geometry" />
        </mxCell>
        <mxCell id="HqNNQ10qHDL0JFHi53qa-87" value="" style="endArrow=classic;html=1;exitX=0;exitY=0.5;exitDx=0;exitDy=0;entryX=1;entryY=0.5;entryDx=0;entryDy=0;" edge="1" parent="1" source="HqNNQ10qHDL0JFHi53qa-67" target="HqNNQ10qHDL0JFHi53qa-86">
          <mxGeometry width="50" height="50" relative="1" as="geometry">
            <mxPoint x="-1893" y="455" as="sourcePoint" />
            <mxPoint x="-1963" y="205" as="targetPoint" />
          </mxGeometry>
        </mxCell>
        <mxCell id="HqNNQ10qHDL0JFHi53qa-88" value="" style="endArrow=classic;html=1;exitX=0;exitY=0.5;exitDx=0;exitDy=0;entryX=1;entryY=0.5;entryDx=0;entryDy=0;" edge="1" parent="1" source="HqNNQ10qHDL0JFHi53qa-86" target="HqNNQ10qHDL0JFHi53qa-117">
          <mxGeometry width="50" height="50" relative="1" as="geometry">
            <mxPoint x="-2183" y="265" as="sourcePoint" />
            <mxPoint x="-2343" y="105" as="targetPoint" />
          </mxGeometry>
        </mxCell>
        <mxCell id="HqNNQ10qHDL0JFHi53qa-89" value="" style="edgeStyle=orthogonalEdgeStyle;rounded=0;orthogonalLoop=1;jettySize=auto;html=1;" edge="1" parent="1" source="HqNNQ10qHDL0JFHi53qa-90" target="HqNNQ10qHDL0JFHi53qa-155">
          <mxGeometry relative="1" as="geometry" />
        </mxCell>
        <mxCell id="HqNNQ10qHDL0JFHi53qa-90" value="Transaction" style="whiteSpace=wrap;html=1;rounded=1;strokeColor=#996185;fillColor=#e6d0de;gradientColor=#d5739d;" vertex="1" parent="1">
          <mxGeometry x="-1040" y="-290" width="120" height="60" as="geometry" />
        </mxCell>
        <mxCell id="HqNNQ10qHDL0JFHi53qa-91" value="" style="endArrow=classic;html=1;exitX=0;exitY=0;exitDx=0;exitDy=0;entryX=0.5;entryY=1;entryDx=0;entryDy=0;" edge="1" parent="1" source="HqNNQ10qHDL0JFHi53qa-15" target="HqNNQ10qHDL0JFHi53qa-90">
          <mxGeometry width="50" height="50" relative="1" as="geometry">
            <mxPoint x="-480" y="320" as="sourcePoint" />
            <mxPoint x="-430" y="270" as="targetPoint" />
          </mxGeometry>
        </mxCell>
        <mxCell id="HqNNQ10qHDL0JFHi53qa-92" value="" style="edgeStyle=orthogonalEdgeStyle;rounded=0;orthogonalLoop=1;jettySize=auto;html=1;exitX=0;exitY=0.5;exitDx=0;exitDy=0;entryX=1;entryY=0.5;entryDx=0;entryDy=0;" edge="1" parent="1" source="HqNNQ10qHDL0JFHi53qa-93" target="HqNNQ10qHDL0JFHi53qa-94">
          <mxGeometry relative="1" as="geometry">
            <mxPoint x="-1730" y="-480" as="sourcePoint" />
            <mxPoint x="-1810" y="-480" as="targetPoint" />
          </mxGeometry>
        </mxCell>
        <mxCell id="HqNNQ10qHDL0JFHi53qa-93" value="Without transaction" style="whiteSpace=wrap;html=1;rounded=1;gradientColor=#7ea6e0;fillColor=#dae8fc;strokeColor=#6c8ebf;" vertex="1" parent="1">
          <mxGeometry x="-1520" y="-510" width="120" height="60" as="geometry" />
        </mxCell>
        <mxCell id="HqNNQ10qHDL0JFHi53qa-94" value="&lt;div&gt;Connection is acquired and&lt;/div&gt;&lt;div&gt;released for every method call&lt;/div&gt;" style="whiteSpace=wrap;html=1;rounded=0;" vertex="1" parent="1">
          <mxGeometry x="-1720" y="-510" width="120" height="60" as="geometry" />
        </mxCell>
        <mxCell id="HqNNQ10qHDL0JFHi53qa-95" value="" style="edgeStyle=orthogonalEdgeStyle;rounded=0;orthogonalLoop=1;jettySize=auto;html=1;" edge="1" parent="1" source="HqNNQ10qHDL0JFHi53qa-96" target="HqNNQ10qHDL0JFHi53qa-98">
          <mxGeometry relative="1" as="geometry" />
        </mxCell>
        <mxCell id="HqNNQ10qHDL0JFHi53qa-96" value="With transaction" style="whiteSpace=wrap;html=1;rounded=1;gradientColor=#7ea6e0;fillColor=#dae8fc;strokeColor=#6c8ebf;" vertex="1" parent="1">
          <mxGeometry x="-1520" y="-590" width="120" height="60" as="geometry" />
        </mxCell>
        <mxCell id="HqNNQ10qHDL0JFHi53qa-97" value="" style="edgeStyle=orthogonalEdgeStyle;rounded=0;orthogonalLoop=1;jettySize=auto;html=1;" edge="1" parent="1" source="HqNNQ10qHDL0JFHi53qa-98" target="HqNNQ10qHDL0JFHi53qa-99">
          <mxGeometry relative="1" as="geometry" />
        </mxCell>
        <mxCell id="HqNNQ10qHDL0JFHi53qa-98" value="&lt;b&gt;&lt;font color=&quot;#ff1d0d&quot;&gt;DataSourceUtils&lt;/font&gt;&lt;/b&gt; which is using&amp;nbsp;&lt;font color=&quot;#ff4400&quot;&gt;&lt;b&gt;TransactionSynchronizationManager&lt;/b&gt;&lt;/font&gt;" style="whiteSpace=wrap;html=1;rounded=0;" vertex="1" parent="1">
          <mxGeometry x="-1850" y="-590" width="250" height="60" as="geometry" />
        </mxCell>
        <mxCell id="HqNNQ10qHDL0JFHi53qa-99" value="Will reuse connection between method calls as long as transaction is not commited or roll back" style="whiteSpace=wrap;html=1;rounded=0;" vertex="1" parent="1">
          <mxGeometry x="-1850" y="-730" width="250" height="60" as="geometry" />
        </mxCell>
        <mxCell id="HqNNQ10qHDL0JFHi53qa-100" value="" style="endArrow=classic;html=1;exitX=0;exitY=0.5;exitDx=0;exitDy=0;entryX=1;entryY=0.5;entryDx=0;entryDy=0;" edge="1" parent="1" source="HqNNQ10qHDL0JFHi53qa-90" target="HqNNQ10qHDL0JFHi53qa-96">
          <mxGeometry width="50" height="50" relative="1" as="geometry">
            <mxPoint x="-840" y="310" as="sourcePoint" />
            <mxPoint x="-658" y="180" as="targetPoint" />
          </mxGeometry>
        </mxCell>
        <mxCell id="HqNNQ10qHDL0JFHi53qa-101" value="" style="edgeStyle=orthogonalEdgeStyle;rounded=0;orthogonalLoop=1;jettySize=auto;html=1;" edge="1" parent="1" source="HqNNQ10qHDL0JFHi53qa-102" target="HqNNQ10qHDL0JFHi53qa-103">
          <mxGeometry relative="1" as="geometry">
            <mxPoint x="-650" y="-280" as="targetPoint" />
          </mxGeometry>
        </mxCell>
        <mxCell id="HqNNQ10qHDL0JFHi53qa-102" value="JDBC Template" style="whiteSpace=wrap;html=1;rounded=1;strokeColor=#6c8ebf;fillColor=#dae8fc;gradientColor=#7ea6e0;" vertex="1" parent="1">
          <mxGeometry x="-1060" y="-440" width="120" height="60" as="geometry" />
        </mxCell>
        <mxCell id="HqNNQ10qHDL0JFHi53qa-103" value="Uses getConnection() method from DataSource class through DataSourceUtil class" style="whiteSpace=wrap;html=1;rounded=1;gradientColor=#97d077;fillColor=#d5e8d4;strokeColor=#82b366;" vertex="1" parent="1">
          <mxGeometry x="-1120" y="-584" width="240" height="60" as="geometry" />
        </mxCell>
        <mxCell id="HqNNQ10qHDL0JFHi53qa-104" value="" style="endArrow=classic;html=1;exitX=0.5;exitY=0;exitDx=0;exitDy=0;entryX=1;entryY=0.5;entryDx=0;entryDy=0;" edge="1" parent="1" source="HqNNQ10qHDL0JFHi53qa-103" target="HqNNQ10qHDL0JFHi53qa-149">
          <mxGeometry width="50" height="50" relative="1" as="geometry">
            <mxPoint x="-650" y="-340" as="sourcePoint" />
            <mxPoint x="-860" y="-510" as="targetPoint" />
          </mxGeometry>
        </mxCell>
        <mxCell id="HqNNQ10qHDL0JFHi53qa-105" value="" style="endArrow=classic;html=1;exitX=0.5;exitY=0;exitDx=0;exitDy=0;entryX=1;entryY=0.5;entryDx=0;entryDy=0;" edge="1" parent="1" source="HqNNQ10qHDL0JFHi53qa-103" target="HqNNQ10qHDL0JFHi53qa-146">
          <mxGeometry width="50" height="50" relative="1" as="geometry">
            <mxPoint x="-650" y="-340" as="sourcePoint" />
            <mxPoint x="-930" y="-410" as="targetPoint" />
          </mxGeometry>
        </mxCell>
        <mxCell id="HqNNQ10qHDL0JFHi53qa-106" value="return single object, return only one records, otherwise throw exception" style="rounded=0;whiteSpace=wrap;html=1;strokeColor=default;" vertex="1" parent="1">
          <mxGeometry x="-2980" y="-85" width="410" height="60" as="geometry" />
        </mxCell>
        <mxCell id="HqNNQ10qHDL0JFHi53qa-107" value="return list of objects of declared type, return results with only one column, otherwise throw exception" style="rounded=0;whiteSpace=wrap;html=1;strokeColor=default;" vertex="1" parent="1">
          <mxGeometry x="-3150" y="-25" width="580" height="60" as="geometry" />
        </mxCell>
        <mxCell id="HqNNQ10qHDL0JFHi53qa-108" value="&lt;div&gt;returns map for single row with keys representing column names&lt;/div&gt;&lt;div&gt;and values representing database record value, expects query to return only one&lt;/div&gt;&lt;div&gt;record, otherwise, throw exception&lt;/div&gt;" style="rounded=0;whiteSpace=wrap;html=1;strokeColor=default;" vertex="1" parent="1">
          <mxGeometry x="-3150" y="35" width="580" height="60" as="geometry" />
        </mxCell>
        <mxCell id="HqNNQ10qHDL0JFHi53qa-109" value="query" style="rounded=0;whiteSpace=wrap;html=1;strokeColor=default;" vertex="1" parent="1">
          <mxGeometry x="-2493" y="-145" width="120" height="60" as="geometry" />
        </mxCell>
        <mxCell id="HqNNQ10qHDL0JFHi53qa-110" value="" style="edgeStyle=orthogonalEdgeStyle;rounded=0;orthogonalLoop=1;jettySize=auto;html=1;entryX=1;entryY=0.5;entryDx=0;entryDy=0;" edge="1" parent="1" source="HqNNQ10qHDL0JFHi53qa-111" target="HqNNQ10qHDL0JFHi53qa-106">
          <mxGeometry relative="1" as="geometry" />
        </mxCell>
        <mxCell id="HqNNQ10qHDL0JFHi53qa-111" value="queryForList" style="rounded=0;whiteSpace=wrap;html=1;strokeColor=default;" vertex="1" parent="1">
          <mxGeometry x="-2493" y="-85" width="120" height="60" as="geometry" />
        </mxCell>
        <mxCell id="HqNNQ10qHDL0JFHi53qa-112" value="" style="edgeStyle=orthogonalEdgeStyle;rounded=0;orthogonalLoop=1;jettySize=auto;html=1;entryX=1;entryY=0.5;entryDx=0;entryDy=0;" edge="1" parent="1" source="HqNNQ10qHDL0JFHi53qa-113" target="HqNNQ10qHDL0JFHi53qa-107">
          <mxGeometry relative="1" as="geometry" />
        </mxCell>
        <mxCell id="HqNNQ10qHDL0JFHi53qa-113" value="queryForObject" style="rounded=0;whiteSpace=wrap;html=1;strokeColor=default;" vertex="1" parent="1">
          <mxGeometry x="-2493" y="-25" width="120" height="60" as="geometry" />
        </mxCell>
        <mxCell id="HqNNQ10qHDL0JFHi53qa-114" value="" style="edgeStyle=orthogonalEdgeStyle;rounded=0;orthogonalLoop=1;jettySize=auto;html=1;entryX=1;entryY=0.5;entryDx=0;entryDy=0;" edge="1" parent="1" source="HqNNQ10qHDL0JFHi53qa-115" target="HqNNQ10qHDL0JFHi53qa-108">
          <mxGeometry relative="1" as="geometry" />
        </mxCell>
        <mxCell id="HqNNQ10qHDL0JFHi53qa-115" value="queryForMap" style="rounded=0;whiteSpace=wrap;html=1;strokeColor=default;" vertex="1" parent="1">
          <mxGeometry x="-2493" y="35" width="120" height="60" as="geometry" />
        </mxCell>
        <mxCell id="HqNNQ10qHDL0JFHi53qa-116" value="" style="edgeStyle=orthogonalEdgeStyle;rounded=0;orthogonalLoop=1;jettySize=auto;html=1;" edge="1" parent="1" source="HqNNQ10qHDL0JFHi53qa-117" target="HqNNQ10qHDL0JFHi53qa-121">
          <mxGeometry relative="1" as="geometry" />
        </mxCell>
        <mxCell id="HqNNQ10qHDL0JFHi53qa-117" value="queryForRowSet" style="rounded=0;whiteSpace=wrap;html=1;strokeColor=default;" vertex="1" parent="1">
          <mxGeometry x="-2493" y="95" width="120" height="60" as="geometry" />
        </mxCell>
        <mxCell id="HqNNQ10qHDL0JFHi53qa-118" value="execute" style="rounded=0;whiteSpace=wrap;html=1;strokeColor=default;" vertex="1" parent="1">
          <mxGeometry x="-2493" y="-205" width="120" height="60" as="geometry" />
        </mxCell>
        <mxCell id="HqNNQ10qHDL0JFHi53qa-119" value="batchUpdate" style="rounded=0;whiteSpace=wrap;html=1;strokeColor=default;" vertex="1" parent="1">
          <mxGeometry x="-2493" y="155" width="120" height="60" as="geometry" />
        </mxCell>
        <mxCell id="HqNNQ10qHDL0JFHi53qa-120" value="update" style="rounded=0;whiteSpace=wrap;html=1;strokeColor=default;" vertex="1" parent="1">
          <mxGeometry x="-2493" y="-265" width="120" height="60" as="geometry" />
        </mxCell>
        <mxCell id="HqNNQ10qHDL0JFHi53qa-121" value="&lt;div&gt;returns SqlRowSet object that contains metadata information&lt;/div&gt;&lt;div&gt;(like column names) and allows to read results data and iterate through records&lt;/div&gt;" style="rounded=0;whiteSpace=wrap;html=1;strokeColor=default;" vertex="1" parent="1">
          <mxGeometry x="-3150" y="95" width="580" height="60" as="geometry" />
        </mxCell>
        <mxCell id="HqNNQ10qHDL0JFHi53qa-122" value="Definition" style="whiteSpace=wrap;html=1;rounded=1;strokeColor=#6c8ebf;fillColor=#dae8fc;gradientColor=#7ea6e0;" vertex="1" parent="1">
          <mxGeometry x="-740" y="-630" width="120" height="60" as="geometry" />
        </mxCell>
        <mxCell id="HqNNQ10qHDL0JFHi53qa-123" value="" style="endArrow=classic;html=1;exitX=1;exitY=0.5;exitDx=0;exitDy=0;entryX=0.5;entryY=1;entryDx=0;entryDy=0;" edge="1" parent="1" source="HqNNQ10qHDL0JFHi53qa-90" target="HqNNQ10qHDL0JFHi53qa-122">
          <mxGeometry width="50" height="50" relative="1" as="geometry">
            <mxPoint x="-380" y="170" as="sourcePoint" />
            <mxPoint x="-330" y="120" as="targetPoint" />
          </mxGeometry>
        </mxCell>
        <mxCell id="HqNNQ10qHDL0JFHi53qa-124" value="" style="endArrow=classic;html=1;exitX=0.5;exitY=0;exitDx=0;exitDy=0;entryX=0.5;entryY=1;entryDx=0;entryDy=0;" edge="1" parent="1" source="HqNNQ10qHDL0JFHi53qa-122" target="HqNNQ10qHDL0JFHi53qa-143">
          <mxGeometry width="50" height="50" relative="1" as="geometry">
            <mxPoint x="-380" as="sourcePoint" />
            <mxPoint x="-330" y="-50" as="targetPoint" />
          </mxGeometry>
        </mxCell>
        <mxCell id="HqNNQ10qHDL0JFHi53qa-125" value="" style="edgeStyle=orthogonalEdgeStyle;rounded=0;orthogonalLoop=1;jettySize=auto;html=1;" edge="1" parent="1" source="HqNNQ10qHDL0JFHi53qa-126" target="HqNNQ10qHDL0JFHi53qa-127">
          <mxGeometry relative="1" as="geometry" />
        </mxCell>
        <mxCell id="HqNNQ10qHDL0JFHi53qa-126" value="Atomicity" style="whiteSpace=wrap;html=1;rounded=0;" vertex="1" parent="1">
          <mxGeometry x="-420" y="-1150" width="90" height="60" as="geometry" />
        </mxCell>
        <mxCell id="HqNNQ10qHDL0JFHi53qa-127" value="All changes are applied or none changes are applied" style="whiteSpace=wrap;html=1;rounded=0;" vertex="1" parent="1">
          <mxGeometry x="-250" y="-1150" width="290" height="60" as="geometry" />
        </mxCell>
        <mxCell id="HqNNQ10qHDL0JFHi53qa-128" value="" style="edgeStyle=orthogonalEdgeStyle;rounded=0;orthogonalLoop=1;jettySize=auto;html=1;" edge="1" parent="1" source="HqNNQ10qHDL0JFHi53qa-129" target="HqNNQ10qHDL0JFHi53qa-130">
          <mxGeometry relative="1" as="geometry" />
        </mxCell>
        <mxCell id="HqNNQ10qHDL0JFHi53qa-129" value="Consistency" style="whiteSpace=wrap;html=1;rounded=0;" vertex="1" parent="1">
          <mxGeometry x="-420" y="-1090" width="90" height="60" as="geometry" />
        </mxCell>
        <mxCell id="HqNNQ10qHDL0JFHi53qa-130" value="System should go from one valid state to other valid state" style="whiteSpace=wrap;html=1;rounded=0;" vertex="1" parent="1">
          <mxGeometry x="-250" y="-1090" width="290" height="60" as="geometry" />
        </mxCell>
        <mxCell id="HqNNQ10qHDL0JFHi53qa-131" value="" style="edgeStyle=orthogonalEdgeStyle;rounded=0;orthogonalLoop=1;jettySize=auto;html=1;" edge="1" parent="1" source="HqNNQ10qHDL0JFHi53qa-132" target="HqNNQ10qHDL0JFHi53qa-133">
          <mxGeometry relative="1" as="geometry" />
        </mxCell>
        <mxCell id="HqNNQ10qHDL0JFHi53qa-132" value="Isolation" style="whiteSpace=wrap;html=1;rounded=0;" vertex="1" parent="1">
          <mxGeometry x="-420" y="-1030" width="90" height="60" as="geometry" />
        </mxCell>
        <mxCell id="HqNNQ10qHDL0JFHi53qa-133" value="One transaction cannot affect other one" style="whiteSpace=wrap;html=1;rounded=0;" vertex="1" parent="1">
          <mxGeometry x="-250" y="-1030" width="290" height="60" as="geometry" />
        </mxCell>
        <mxCell id="HqNNQ10qHDL0JFHi53qa-134" value="" style="edgeStyle=orthogonalEdgeStyle;rounded=0;orthogonalLoop=1;jettySize=auto;html=1;" edge="1" parent="1" source="HqNNQ10qHDL0JFHi53qa-135" target="HqNNQ10qHDL0JFHi53qa-136">
          <mxGeometry relative="1" as="geometry" />
        </mxCell>
        <mxCell id="HqNNQ10qHDL0JFHi53qa-135" value="Durability" style="whiteSpace=wrap;html=1;rounded=0;" vertex="1" parent="1">
          <mxGeometry x="-420" y="-970" width="90" height="60" as="geometry" />
        </mxCell>
        <mxCell id="HqNNQ10qHDL0JFHi53qa-136" value="&lt;div&gt;Guarantees that if transaction has been committed, data will be&lt;/div&gt;&lt;div&gt;preserved, even in case of system/power failure&lt;/div&gt;" style="whiteSpace=wrap;html=1;rounded=0;" vertex="1" parent="1">
          <mxGeometry x="-250" y="-970" width="290" height="60" as="geometry" />
        </mxCell>
        <mxCell id="HqNNQ10qHDL0JFHi53qa-137" value="" style="endArrow=classic;html=1;exitX=0.5;exitY=0;exitDx=0;exitDy=0;entryX=0;entryY=0;entryDx=0;entryDy=0;" edge="1" parent="1" source="HqNNQ10qHDL0JFHi53qa-122" target="HqNNQ10qHDL0JFHi53qa-132">
          <mxGeometry width="50" height="50" relative="1" as="geometry">
            <mxPoint x="-190" y="-80" as="sourcePoint" />
            <mxPoint x="-140" y="-130" as="targetPoint" />
          </mxGeometry>
        </mxCell>
        <mxCell id="HqNNQ10qHDL0JFHi53qa-138" value="" style="edgeStyle=orthogonalEdgeStyle;rounded=0;orthogonalLoop=1;jettySize=auto;html=1;" edge="1" parent="1" source="HqNNQ10qHDL0JFHi53qa-139" target="HqNNQ10qHDL0JFHi53qa-144">
          <mxGeometry relative="1" as="geometry" />
        </mxCell>
        <mxCell id="HqNNQ10qHDL0JFHi53qa-139" value="Cross-cutting concern" style="whiteSpace=wrap;html=1;rounded=1;fillColor=#d5e8d4;strokeColor=#82b366;gradientColor=#97d077;" vertex="1" parent="1">
          <mxGeometry x="-900" y="-820" width="240" height="60" as="geometry" />
        </mxCell>
        <mxCell id="HqNNQ10qHDL0JFHi53qa-140" value="" style="endArrow=classic;html=1;exitX=0.5;exitY=0;exitDx=0;exitDy=0;entryX=0.5;entryY=1;entryDx=0;entryDy=0;" edge="1" parent="1" source="HqNNQ10qHDL0JFHi53qa-122" target="HqNNQ10qHDL0JFHi53qa-139">
          <mxGeometry width="50" height="50" relative="1" as="geometry">
            <mxPoint x="-370" y="-140" as="sourcePoint" />
            <mxPoint x="-320" y="-190" as="targetPoint" />
          </mxGeometry>
        </mxCell>
        <mxCell id="HqNNQ10qHDL0JFHi53qa-141" value="" style="group" vertex="1" connectable="0" parent="1">
          <mxGeometry x="-420" y="-890" width="240" height="120" as="geometry" />
        </mxCell>
        <mxCell id="HqNNQ10qHDL0JFHi53qa-142" value="An operation that consist of series of tasks" style="whiteSpace=wrap;html=1;rounded=0;" vertex="1" parent="HqNNQ10qHDL0JFHi53qa-141">
          <mxGeometry width="240" height="60" as="geometry" />
        </mxCell>
        <mxCell id="HqNNQ10qHDL0JFHi53qa-143" value="&lt;div&gt;All of those tasks&lt;/div&gt;&lt;div&gt;should be performed, or none of the tasks should be performed&lt;/div&gt;" style="whiteSpace=wrap;html=1;rounded=0;" vertex="1" parent="HqNNQ10qHDL0JFHi53qa-141">
          <mxGeometry y="60" width="240" height="60" as="geometry" />
        </mxCell>
        <mxCell id="HqNNQ10qHDL0JFHi53qa-144" value="Proxied by&amp;nbsp;&lt;b&gt;TransactionInterceptor&lt;/b&gt; and&amp;nbsp;&lt;b&gt;TransactionAspectSupport&lt;/b&gt;, will interact with&amp;nbsp;&lt;b&gt;PlatformTransactionManager&lt;/b&gt;&amp;nbsp;" style="whiteSpace=wrap;html=1;rounded=0;" vertex="1" parent="1">
          <mxGeometry x="-900" y="-980" width="240" height="60" as="geometry" />
        </mxCell>
        <mxCell id="HqNNQ10qHDL0JFHi53qa-145" value="" style="group" vertex="1" connectable="0" parent="1">
          <mxGeometry x="-1530" y="-780" width="540" height="150" as="geometry" />
        </mxCell>
        <mxCell id="HqNNQ10qHDL0JFHi53qa-146" value="Datasource is plain JDBC connection source" style="whiteSpace=wrap;html=1;rounded=0;" vertex="1" parent="HqNNQ10qHDL0JFHi53qa-145">
          <mxGeometry x="300" y="90" width="240" height="60" as="geometry" />
        </mxCell>
        <mxCell id="HqNNQ10qHDL0JFHi53qa-147" value="Connection is actually open/close" style="whiteSpace=wrap;html=1;rounded=0;" vertex="1" parent="HqNNQ10qHDL0JFHi53qa-145">
          <mxGeometry y="90" width="240" height="60" as="geometry" />
        </mxCell>
        <mxCell id="HqNNQ10qHDL0JFHi53qa-148" value="" style="edgeStyle=orthogonalEdgeStyle;rounded=0;orthogonalLoop=1;jettySize=auto;html=1;exitX=0;exitY=0.5;exitDx=0;exitDy=0;" edge="1" parent="HqNNQ10qHDL0JFHi53qa-145" source="HqNNQ10qHDL0JFHi53qa-146" target="HqNNQ10qHDL0JFHi53qa-147">
          <mxGeometry relative="1" as="geometry">
            <mxPoint x="300" y="120" as="sourcePoint" />
          </mxGeometry>
        </mxCell>
        <mxCell id="HqNNQ10qHDL0JFHi53qa-149" value="Datasource is Connection Pool like C3P0" style="whiteSpace=wrap;html=1;rounded=0;" vertex="1" parent="HqNNQ10qHDL0JFHi53qa-145">
          <mxGeometry x="300" width="240" height="60" as="geometry" />
        </mxCell>
        <mxCell id="HqNNQ10qHDL0JFHi53qa-150" value="Connection will be acquired or released from/to the pool" style="whiteSpace=wrap;html=1;rounded=0;" vertex="1" parent="HqNNQ10qHDL0JFHi53qa-145">
          <mxGeometry width="240" height="60" as="geometry" />
        </mxCell>
        <mxCell id="HqNNQ10qHDL0JFHi53qa-151" value="" style="edgeStyle=orthogonalEdgeStyle;rounded=0;orthogonalLoop=1;jettySize=auto;html=1;exitX=0;exitY=0.5;exitDx=0;exitDy=0;" edge="1" parent="HqNNQ10qHDL0JFHi53qa-145" source="HqNNQ10qHDL0JFHi53qa-149" target="HqNNQ10qHDL0JFHi53qa-150">
          <mxGeometry relative="1" as="geometry">
            <mxPoint x="300" y="30" as="sourcePoint" />
          </mxGeometry>
        </mxCell>
        <mxCell id="HqNNQ10qHDL0JFHi53qa-152" value="" style="endArrow=classic;html=1;exitX=0.5;exitY=0;exitDx=0;exitDy=0;entryX=0.5;entryY=1;entryDx=0;entryDy=0;" edge="1" parent="1" source="HqNNQ10qHDL0JFHi53qa-90" target="HqNNQ10qHDL0JFHi53qa-102">
          <mxGeometry width="50" height="50" relative="1" as="geometry">
            <mxPoint x="-650" y="100" as="sourcePoint" />
            <mxPoint x="-600" y="50" as="targetPoint" />
          </mxGeometry>
        </mxCell>
        <mxCell id="HqNNQ10qHDL0JFHi53qa-153" value="" style="endArrow=classic;html=1;exitX=0;exitY=0.5;exitDx=0;exitDy=0;entryX=1;entryY=0.5;entryDx=0;entryDy=0;" edge="1" parent="1" source="HqNNQ10qHDL0JFHi53qa-90" target="HqNNQ10qHDL0JFHi53qa-93">
          <mxGeometry width="50" height="50" relative="1" as="geometry">
            <mxPoint x="-650" y="100" as="sourcePoint" />
            <mxPoint x="-600" y="50" as="targetPoint" />
          </mxGeometry>
        </mxCell>
        <mxCell id="HqNNQ10qHDL0JFHi53qa-154" value="@Transactional" style="whiteSpace=wrap;html=1;rounded=1;gradientColor=#97d077;fillColor=#d5e8d4;strokeColor=#82b366;" vertex="1" parent="1">
          <mxGeometry x="-2250" y="-580" width="230" height="60" as="geometry" />
        </mxCell>
        <mxCell id="HqNNQ10qHDL0JFHi53qa-155" value="Config" style="whiteSpace=wrap;html=1;rounded=1;strokeColor=#6c8ebf;fillColor=#dae8fc;gradientColor=#7ea6e0;" vertex="1" parent="1">
          <mxGeometry x="-1040" width="120" height="60" as="geometry" />
        </mxCell>
        <mxCell id="HqNNQ10qHDL0JFHi53qa-156" value="" style="edgeStyle=orthogonalEdgeStyle;rounded=0;orthogonalLoop=1;jettySize=auto;html=1;" edge="1" parent="1" source="HqNNQ10qHDL0JFHi53qa-157" target="HqNNQ10qHDL0JFHi53qa-218">
          <mxGeometry relative="1" as="geometry" />
        </mxCell>
        <mxCell id="HqNNQ10qHDL0JFHi53qa-157" value="@EnableTransactionManagement" style="whiteSpace=wrap;html=1;rounded=1;gradientColor=#97d077;fillColor=#d5e8d4;strokeColor=#82b366;" vertex="1" parent="1">
          <mxGeometry x="-1670" y="-110" width="230" height="60" as="geometry" />
        </mxCell>
        <mxCell id="HqNNQ10qHDL0JFHi53qa-158" value="" style="edgeStyle=orthogonalEdgeStyle;rounded=0;orthogonalLoop=1;jettySize=auto;html=1;" edge="1" parent="1" source="HqNNQ10qHDL0JFHi53qa-159" target="HqNNQ10qHDL0JFHi53qa-177">
          <mxGeometry relative="1" as="geometry" />
        </mxCell>
        <mxCell id="HqNNQ10qHDL0JFHi53qa-159" value="Bean &lt;br&gt;implementing&lt;br&gt;&amp;nbsp;PlatformTransactionManager," style="whiteSpace=wrap;html=1;rounded=1;gradientColor=#97d077;fillColor=#d5e8d4;strokeColor=#82b366;" vertex="1" parent="1">
          <mxGeometry x="-1550" y="95" width="230" height="60" as="geometry" />
        </mxCell>
        <mxCell id="HqNNQ10qHDL0JFHi53qa-160" value="" style="endArrow=classic;html=1;exitX=0;exitY=0.5;exitDx=0;exitDy=0;entryX=1;entryY=0.5;entryDx=0;entryDy=0;" edge="1" parent="1" source="HqNNQ10qHDL0JFHi53qa-155" target="HqNNQ10qHDL0JFHi53qa-159">
          <mxGeometry x="-1490" y="230" width="50" height="50" as="geometry">
            <mxPoint x="-650" y="90" as="sourcePoint" />
            <mxPoint x="-600" y="40" as="targetPoint" />
          </mxGeometry>
        </mxCell>
        <mxCell id="HqNNQ10qHDL0JFHi53qa-161" value="DataSourceTransactionManager" style="whiteSpace=wrap;html=1;rounded=0;" vertex="1" parent="1">
          <mxGeometry x="-1880" y="95" width="230" height="60" as="geometry" />
        </mxCell>
        <mxCell id="HqNNQ10qHDL0JFHi53qa-162" value="" style="edgeStyle=orthogonalEdgeStyle;rounded=0;orthogonalLoop=1;jettySize=auto;html=1;" edge="1" parent="1" source="HqNNQ10qHDL0JFHi53qa-159" target="HqNNQ10qHDL0JFHi53qa-161">
          <mxGeometry x="-1860" y="55" as="geometry" />
        </mxCell>
        <mxCell id="HqNNQ10qHDL0JFHi53qa-163" value="" style="edgeStyle=orthogonalEdgeStyle;rounded=0;orthogonalLoop=1;jettySize=auto;html=1;" edge="1" parent="1" source="HqNNQ10qHDL0JFHi53qa-164" target="HqNNQ10qHDL0JFHi53qa-271">
          <mxGeometry relative="1" as="geometry" />
        </mxCell>
        <mxCell id="HqNNQ10qHDL0JFHi53qa-164" value="JtaTransactionManager" style="whiteSpace=wrap;html=1;rounded=0;" vertex="1" parent="1">
          <mxGeometry x="-1880" y="35" width="230" height="60" as="geometry" />
        </mxCell>
        <mxCell id="HqNNQ10qHDL0JFHi53qa-165" value="" style="edgeStyle=orthogonalEdgeStyle;rounded=0;orthogonalLoop=1;jettySize=auto;html=1;" edge="1" parent="1" source="HqNNQ10qHDL0JFHi53qa-166" target="HqNNQ10qHDL0JFHi53qa-272">
          <mxGeometry relative="1" as="geometry" />
        </mxCell>
        <mxCell id="HqNNQ10qHDL0JFHi53qa-166" value="JpaTransactionManager" style="whiteSpace=wrap;html=1;rounded=0;" vertex="1" parent="1">
          <mxGeometry x="-1880" y="155" width="230" height="60" as="geometry" />
        </mxCell>
        <mxCell id="HqNNQ10qHDL0JFHi53qa-167" value="Transaction Manager" style="whiteSpace=wrap;html=1;rounded=0;" vertex="1" parent="1">
          <mxGeometry x="-2580" y="-720" width="230" height="60" as="geometry" />
        </mxCell>
        <mxCell id="HqNNQ10qHDL0JFHi53qa-168" value="Propagation Type" style="whiteSpace=wrap;html=1;rounded=0;" vertex="1" parent="1">
          <mxGeometry x="-2580" y="-660" width="230" height="60" as="geometry" />
        </mxCell>
        <mxCell id="HqNNQ10qHDL0JFHi53qa-169" value="Isolation Level" style="whiteSpace=wrap;html=1;rounded=0;" vertex="1" parent="1">
          <mxGeometry x="-2580" y="-600" width="230" height="60" as="geometry" />
        </mxCell>
        <mxCell id="HqNNQ10qHDL0JFHi53qa-170" value="Timeout for Transaction" style="whiteSpace=wrap;html=1;rounded=0;" vertex="1" parent="1">
          <mxGeometry x="-2580" y="-780" width="230" height="60" as="geometry" />
        </mxCell>
        <mxCell id="HqNNQ10qHDL0JFHi53qa-171" value="Read Only Flag" style="whiteSpace=wrap;html=1;rounded=0;" vertex="1" parent="1">
          <mxGeometry x="-2580" y="-840" width="230" height="60" as="geometry" />
        </mxCell>
        <mxCell id="HqNNQ10qHDL0JFHi53qa-172" value="Define which exception types will cause transaction rollback" style="whiteSpace=wrap;html=1;rounded=0;" vertex="1" parent="1">
          <mxGeometry x="-2580" y="-900" width="230" height="60" as="geometry" />
        </mxCell>
        <mxCell id="HqNNQ10qHDL0JFHi53qa-173" value="" style="edgeStyle=orthogonalEdgeStyle;rounded=0;orthogonalLoop=1;jettySize=auto;html=1;" edge="1" parent="1" source="HqNNQ10qHDL0JFHi53qa-174" target="HqNNQ10qHDL0JFHi53qa-259">
          <mxGeometry relative="1" as="geometry" />
        </mxCell>
        <mxCell id="HqNNQ10qHDL0JFHi53qa-174" value="Define which exception types will not cause transaction rollback" style="whiteSpace=wrap;html=1;rounded=0;" vertex="1" parent="1">
          <mxGeometry x="-2580" y="-960" width="230" height="60" as="geometry" />
        </mxCell>
        <mxCell id="HqNNQ10qHDL0JFHi53qa-175" value="" style="endArrow=classic;html=1;exitX=0;exitY=0.5;exitDx=0;exitDy=0;entryX=1;entryY=0.5;entryDx=0;entryDy=0;" edge="1" parent="1" source="HqNNQ10qHDL0JFHi53qa-154" target="HqNNQ10qHDL0JFHi53qa-170">
          <mxGeometry width="50" height="50" relative="1" as="geometry">
            <mxPoint x="-1710" y="-300" as="sourcePoint" />
            <mxPoint x="-1660" y="-350" as="targetPoint" />
          </mxGeometry>
        </mxCell>
        <mxCell id="HqNNQ10qHDL0JFHi53qa-176" value="" style="endArrow=classic;html=1;entryX=1;entryY=0.5;entryDx=0;entryDy=0;exitX=0;exitY=0.5;exitDx=0;exitDy=0;" edge="1" parent="1" source="HqNNQ10qHDL0JFHi53qa-155" target="HqNNQ10qHDL0JFHi53qa-154">
          <mxGeometry width="50" height="50" relative="1" as="geometry">
            <mxPoint x="-870" y="260" as="sourcePoint" />
            <mxPoint x="-1110" y="130" as="targetPoint" />
          </mxGeometry>
        </mxCell>
        <mxCell id="HqNNQ10qHDL0JFHi53qa-177" value="interface" style="whiteSpace=wrap;html=1;rounded=0;" vertex="1" parent="1">
          <mxGeometry x="-1550" y="215" width="230" height="60" as="geometry" />
        </mxCell>
        <mxCell id="HqNNQ10qHDL0JFHi53qa-178" value="used by declarative&#xa;Spring’s AOP Transaction Management to create, commit and rollback&#xa;transactions." style="whiteSpace=wrap;html=1;rounded=0;" vertex="1" parent="1">
          <mxGeometry x="-1550" y="275" width="230" height="60" as="geometry" />
        </mxCell>
        <mxCell id="HqNNQ10qHDL0JFHi53qa-179" value="" style="endArrow=classic;html=1;entryX=1;entryY=0.5;entryDx=0;entryDy=0;exitX=0;exitY=0.5;exitDx=0;exitDy=0;" edge="1" parent="1" source="HqNNQ10qHDL0JFHi53qa-155" target="HqNNQ10qHDL0JFHi53qa-157">
          <mxGeometry width="50" height="50" relative="1" as="geometry">
            <mxPoint x="-870" y="260" as="sourcePoint" />
            <mxPoint x="-1140" y="30" as="targetPoint" />
          </mxGeometry>
        </mxCell>
        <mxCell id="HqNNQ10qHDL0JFHi53qa-180" value="" style="edgeStyle=orthogonalEdgeStyle;rounded=0;orthogonalLoop=1;jettySize=auto;html=1;" edge="1" parent="1" source="HqNNQ10qHDL0JFHi53qa-183" target="HqNNQ10qHDL0JFHi53qa-184">
          <mxGeometry relative="1" as="geometry" />
        </mxCell>
        <mxCell id="HqNNQ10qHDL0JFHi53qa-181" value="" style="edgeStyle=orthogonalEdgeStyle;rounded=0;orthogonalLoop=1;jettySize=auto;html=1;" edge="1" parent="1" source="HqNNQ10qHDL0JFHi53qa-183" target="HqNNQ10qHDL0JFHi53qa-186">
          <mxGeometry relative="1" as="geometry" />
        </mxCell>
        <mxCell id="HqNNQ10qHDL0JFHi53qa-182" value="" style="edgeStyle=orthogonalEdgeStyle;rounded=0;orthogonalLoop=1;jettySize=auto;html=1;" edge="1" parent="1" source="HqNNQ10qHDL0JFHi53qa-183" target="HqNNQ10qHDL0JFHi53qa-202">
          <mxGeometry relative="1" as="geometry" />
        </mxCell>
        <mxCell id="HqNNQ10qHDL0JFHi53qa-183" value="Isolation level" style="whiteSpace=wrap;html=1;rounded=1;strokeColor=#6c8ebf;fillColor=#dae8fc;gradientColor=#7ea6e0;" vertex="1" parent="1">
          <mxGeometry x="-100" y="-650" width="120" height="60" as="geometry" />
        </mxCell>
        <mxCell id="HqNNQ10qHDL0JFHi53qa-184" value="Determine how changes made under one transaction visible in other transaction&lt;span style=&quot;white-space: pre&quot;&gt;	&lt;/span&gt;" style="whiteSpace=wrap;html=1;rounded=0;" vertex="1" parent="1">
          <mxGeometry x="100" y="-650" width="200" height="60" as="geometry" />
        </mxCell>
        <mxCell id="HqNNQ10qHDL0JFHi53qa-185" value="" style="edgeStyle=orthogonalEdgeStyle;rounded=0;orthogonalLoop=1;jettySize=auto;html=1;" edge="1" parent="1" source="HqNNQ10qHDL0JFHi53qa-186" target="HqNNQ10qHDL0JFHi53qa-188">
          <mxGeometry relative="1" as="geometry" />
        </mxCell>
        <mxCell id="HqNNQ10qHDL0JFHi53qa-186" value="Problems" style="whiteSpace=wrap;html=1;rounded=1;strokeColor=#82b366;fillColor=#d5e8d4;gradientColor=#97d077;" vertex="1" parent="1">
          <mxGeometry x="-100" y="-790" width="120" height="60" as="geometry" />
        </mxCell>
        <mxCell id="HqNNQ10qHDL0JFHi53qa-187" value="" style="edgeStyle=orthogonalEdgeStyle;rounded=0;orthogonalLoop=1;jettySize=auto;html=1;" edge="1" parent="1" source="HqNNQ10qHDL0JFHi53qa-188" target="HqNNQ10qHDL0JFHi53qa-194">
          <mxGeometry relative="1" as="geometry" />
        </mxCell>
        <mxCell id="HqNNQ10qHDL0JFHi53qa-188" value="Phantom read" style="whiteSpace=wrap;html=1;rounded=0;" vertex="1" parent="1">
          <mxGeometry x="100" y="-790" width="120" height="60" as="geometry" />
        </mxCell>
        <mxCell id="HqNNQ10qHDL0JFHi53qa-189" value="" style="edgeStyle=orthogonalEdgeStyle;rounded=0;orthogonalLoop=1;jettySize=auto;html=1;" edge="1" parent="1" source="HqNNQ10qHDL0JFHi53qa-190" target="HqNNQ10qHDL0JFHi53qa-197">
          <mxGeometry relative="1" as="geometry" />
        </mxCell>
        <mxCell id="HqNNQ10qHDL0JFHi53qa-190" value="Non-repeatable Read" style="whiteSpace=wrap;html=1;rounded=0;" vertex="1" parent="1">
          <mxGeometry x="100" y="-850" width="120" height="60" as="geometry" />
        </mxCell>
        <mxCell id="HqNNQ10qHDL0JFHi53qa-191" value="" style="edgeStyle=orthogonalEdgeStyle;rounded=0;orthogonalLoop=1;jettySize=auto;html=1;" edge="1" parent="1" source="HqNNQ10qHDL0JFHi53qa-192" target="HqNNQ10qHDL0JFHi53qa-200">
          <mxGeometry relative="1" as="geometry" />
        </mxCell>
        <mxCell id="HqNNQ10qHDL0JFHi53qa-192" value="Dirty read" style="whiteSpace=wrap;html=1;rounded=0;" vertex="1" parent="1">
          <mxGeometry x="100" y="-730" width="120" height="60" as="geometry" />
        </mxCell>
        <mxCell id="HqNNQ10qHDL0JFHi53qa-193" value="" style="edgeStyle=orthogonalEdgeStyle;rounded=0;orthogonalLoop=1;jettySize=auto;html=1;" edge="1" parent="1" source="HqNNQ10qHDL0JFHi53qa-194" target="HqNNQ10qHDL0JFHi53qa-195">
          <mxGeometry relative="1" as="geometry" />
        </mxCell>
        <mxCell id="HqNNQ10qHDL0JFHi53qa-194" value="Read changes value by other transaction&amp;nbsp; but with range query" style="whiteSpace=wrap;html=1;rounded=0;" vertex="1" parent="1">
          <mxGeometry x="300" y="-790" width="140" height="60" as="geometry" />
        </mxCell>
        <mxCell id="HqNNQ10qHDL0JFHi53qa-195" value="Use higher isolation level that use range lock" style="whiteSpace=wrap;html=1;rounded=0;" vertex="1" parent="1">
          <mxGeometry x="500" y="-790" width="140" height="60" as="geometry" />
        </mxCell>
        <mxCell id="HqNNQ10qHDL0JFHi53qa-196" value="" style="edgeStyle=orthogonalEdgeStyle;rounded=0;orthogonalLoop=1;jettySize=auto;html=1;" edge="1" parent="1" source="HqNNQ10qHDL0JFHi53qa-197" target="HqNNQ10qHDL0JFHi53qa-198">
          <mxGeometry relative="1" as="geometry" />
        </mxCell>
        <mxCell id="HqNNQ10qHDL0JFHi53qa-197" value="Read changes value by other transaction" style="whiteSpace=wrap;html=1;rounded=0;" vertex="1" parent="1">
          <mxGeometry x="300" y="-850" width="140" height="60" as="geometry" />
        </mxCell>
        <mxCell id="HqNNQ10qHDL0JFHi53qa-198" value="Use higher isolation level that use read-write locks on data being processed" style="whiteSpace=wrap;html=1;rounded=0;" vertex="1" parent="1">
          <mxGeometry x="500" y="-850" width="140" height="60" as="geometry" />
        </mxCell>
        <mxCell id="HqNNQ10qHDL0JFHi53qa-199" value="" style="edgeStyle=orthogonalEdgeStyle;rounded=0;orthogonalLoop=1;jettySize=auto;html=1;" edge="1" parent="1" source="HqNNQ10qHDL0JFHi53qa-200" target="HqNNQ10qHDL0JFHi53qa-201">
          <mxGeometry relative="1" as="geometry" />
        </mxCell>
        <mxCell id="HqNNQ10qHDL0JFHi53qa-200" value="Read changes value by other transaction(commit does not have to happen)" style="whiteSpace=wrap;html=1;rounded=0;" vertex="1" parent="1">
          <mxGeometry x="300" y="-730" width="140" height="60" as="geometry" />
        </mxCell>
        <mxCell id="HqNNQ10qHDL0JFHi53qa-201" value="Prevent uncommitted changes by&amp;nbsp; other transaction to be visible in current transaction" style="whiteSpace=wrap;html=1;rounded=0;" vertex="1" parent="1">
          <mxGeometry x="500" y="-730" width="140" height="60" as="geometry" />
        </mxCell>
        <mxCell id="HqNNQ10qHDL0JFHi53qa-202" value="&lt;blockquote style=&quot;margin: 0 0 0 40px ; border: none ; padding: 0px&quot;&gt;Level&lt;/blockquote&gt;" style="whiteSpace=wrap;html=1;rounded=1;strokeColor=#82b366;fillColor=#d5e8d4;gradientColor=#97d077;align=left;" vertex="1" parent="1">
          <mxGeometry x="-100" y="-510" width="120" height="60" as="geometry" />
        </mxCell>
        <mxCell id="HqNNQ10qHDL0JFHi53qa-203" value="" style="group" vertex="1" connectable="0" parent="1">
          <mxGeometry x="100" y="-580" width="200" height="240" as="geometry" />
        </mxCell>
        <mxCell id="HqNNQ10qHDL0JFHi53qa-204" value="Serializable" style="whiteSpace=wrap;html=1;rounded=0;" vertex="1" parent="HqNNQ10qHDL0JFHi53qa-203">
          <mxGeometry width="200" height="60" as="geometry" />
        </mxCell>
        <mxCell id="HqNNQ10qHDL0JFHi53qa-205" value="Repeatable read" style="whiteSpace=wrap;html=1;rounded=0;" vertex="1" parent="HqNNQ10qHDL0JFHi53qa-203">
          <mxGeometry y="60" width="200" height="60" as="geometry" />
        </mxCell>
        <mxCell id="HqNNQ10qHDL0JFHi53qa-206" value="Read committed" style="whiteSpace=wrap;html=1;rounded=0;" vertex="1" parent="HqNNQ10qHDL0JFHi53qa-203">
          <mxGeometry y="120" width="200" height="60" as="geometry" />
        </mxCell>
        <mxCell id="HqNNQ10qHDL0JFHi53qa-207" value="Read uncommitted" style="whiteSpace=wrap;html=1;rounded=0;" vertex="1" parent="HqNNQ10qHDL0JFHi53qa-203">
          <mxGeometry y="180" width="200" height="60" as="geometry" />
        </mxCell>
        <mxCell id="HqNNQ10qHDL0JFHi53qa-208" value="" style="endArrow=classic;html=1;exitX=1;exitY=0.5;exitDx=0;exitDy=0;entryX=0;entryY=0.5;entryDx=0;entryDy=0;" edge="1" parent="1" source="HqNNQ10qHDL0JFHi53qa-202" target="HqNNQ10qHDL0JFHi53qa-205">
          <mxGeometry width="50" height="50" relative="1" as="geometry">
            <mxPoint x="250" y="-480" as="sourcePoint" />
            <mxPoint x="300" y="-530" as="targetPoint" />
          </mxGeometry>
        </mxCell>
        <mxCell id="HqNNQ10qHDL0JFHi53qa-209" value="Read/write locks, range locks held until end of transaction" style="whiteSpace=wrap;html=1;rounded=0;" vertex="1" parent="1">
          <mxGeometry x="380" y="-580" width="200" height="60" as="geometry" />
        </mxCell>
        <mxCell id="HqNNQ10qHDL0JFHi53qa-210" value="" style="edgeStyle=orthogonalEdgeStyle;rounded=0;orthogonalLoop=1;jettySize=auto;html=1;" edge="1" parent="1" source="HqNNQ10qHDL0JFHi53qa-204" target="HqNNQ10qHDL0JFHi53qa-209">
          <mxGeometry relative="1" as="geometry" />
        </mxCell>
        <mxCell id="HqNNQ10qHDL0JFHi53qa-211" value="Read/write locks held until end of transaction" style="whiteSpace=wrap;html=1;rounded=0;" vertex="1" parent="1">
          <mxGeometry x="380" y="-520" width="200" height="60" as="geometry" />
        </mxCell>
        <mxCell id="HqNNQ10qHDL0JFHi53qa-212" value="" style="edgeStyle=orthogonalEdgeStyle;rounded=0;orthogonalLoop=1;jettySize=auto;html=1;" edge="1" parent="1" source="HqNNQ10qHDL0JFHi53qa-205" target="HqNNQ10qHDL0JFHi53qa-211">
          <mxGeometry relative="1" as="geometry" />
        </mxCell>
        <mxCell id="HqNNQ10qHDL0JFHi53qa-213" value="Read locks held until end of select statement, write locks held until end of transaction" style="whiteSpace=wrap;html=1;rounded=0;" vertex="1" parent="1">
          <mxGeometry x="380" y="-460" width="200" height="60" as="geometry" />
        </mxCell>
        <mxCell id="HqNNQ10qHDL0JFHi53qa-214" value="" style="edgeStyle=orthogonalEdgeStyle;rounded=0;orthogonalLoop=1;jettySize=auto;html=1;" edge="1" parent="1" source="HqNNQ10qHDL0JFHi53qa-206" target="HqNNQ10qHDL0JFHi53qa-213">
          <mxGeometry relative="1" as="geometry" />
        </mxCell>
        <mxCell id="HqNNQ10qHDL0JFHi53qa-215" value="It is possible to see changes from other transactions that are not committed" style="whiteSpace=wrap;html=1;rounded=0;" vertex="1" parent="1">
          <mxGeometry x="380" y="-400" width="200" height="60" as="geometry" />
        </mxCell>
        <mxCell id="HqNNQ10qHDL0JFHi53qa-216" value="" style="edgeStyle=orthogonalEdgeStyle;rounded=0;orthogonalLoop=1;jettySize=auto;html=1;" edge="1" parent="1" source="HqNNQ10qHDL0JFHi53qa-207" target="HqNNQ10qHDL0JFHi53qa-215">
          <mxGeometry relative="1" as="geometry" />
        </mxCell>
        <mxCell id="HqNNQ10qHDL0JFHi53qa-217" value="" style="edgeStyle=orthogonalEdgeStyle;rounded=0;orthogonalLoop=1;jettySize=auto;html=1;" edge="1" parent="1" source="HqNNQ10qHDL0JFHi53qa-218" target="HqNNQ10qHDL0JFHi53qa-224">
          <mxGeometry relative="1" as="geometry" />
        </mxCell>
        <mxCell id="HqNNQ10qHDL0JFHi53qa-218" value="Mode" style="whiteSpace=wrap;html=1;rounded=0;" vertex="1" parent="1">
          <mxGeometry x="-1980" y="-190" width="230" height="60" as="geometry" />
        </mxCell>
        <mxCell id="HqNNQ10qHDL0JFHi53qa-219" value="" style="edgeStyle=orthogonalEdgeStyle;rounded=0;orthogonalLoop=1;jettySize=auto;html=1;entryX=1;entryY=0.5;entryDx=0;entryDy=0;" edge="1" parent="1" source="HqNNQ10qHDL0JFHi53qa-220" target="HqNNQ10qHDL0JFHi53qa-225">
          <mxGeometry relative="1" as="geometry" />
        </mxCell>
        <mxCell id="HqNNQ10qHDL0JFHi53qa-220" value="Order" style="whiteSpace=wrap;html=1;rounded=0;" vertex="1" parent="1">
          <mxGeometry x="-1980" y="-130" width="230" height="60" as="geometry" />
        </mxCell>
        <mxCell id="HqNNQ10qHDL0JFHi53qa-221" value="" style="edgeStyle=orthogonalEdgeStyle;rounded=0;orthogonalLoop=1;jettySize=auto;html=1;" edge="1" parent="1" source="HqNNQ10qHDL0JFHi53qa-222" target="HqNNQ10qHDL0JFHi53qa-226">
          <mxGeometry relative="1" as="geometry" />
        </mxCell>
        <mxCell id="HqNNQ10qHDL0JFHi53qa-222" value="proxyTargetClass" style="whiteSpace=wrap;html=1;rounded=0;" vertex="1" parent="1">
          <mxGeometry x="-1980" y="-70" width="230" height="60" as="geometry" />
        </mxCell>
        <mxCell id="HqNNQ10qHDL0JFHi53qa-223" value="" style="edgeStyle=orthogonalEdgeStyle;rounded=0;orthogonalLoop=1;jettySize=auto;html=1;" edge="1" parent="1" source="HqNNQ10qHDL0JFHi53qa-224" target="HqNNQ10qHDL0JFHi53qa-255">
          <mxGeometry relative="1" as="geometry" />
        </mxCell>
        <mxCell id="HqNNQ10qHDL0JFHi53qa-224" value="Proxy or ASPECTJ(support local calls)" style="whiteSpace=wrap;html=1;rounded=0;" vertex="1" parent="1">
          <mxGeometry x="-2290" y="-190" width="230" height="60" as="geometry" />
        </mxCell>
        <mxCell id="HqNNQ10qHDL0JFHi53qa-225" value="Indicate order of advice" style="whiteSpace=wrap;html=1;rounded=0;" vertex="1" parent="1">
          <mxGeometry x="-2290" y="-130" width="230" height="60" as="geometry" />
        </mxCell>
        <mxCell id="HqNNQ10qHDL0JFHi53qa-226" value="CGLIB proxy or JDK proxy(only for proxy)" style="whiteSpace=wrap;html=1;rounded=0;" vertex="1" parent="1">
          <mxGeometry x="-2290" y="-70" width="230" height="60" as="geometry" />
        </mxCell>
        <mxCell id="HqNNQ10qHDL0JFHi53qa-227" value="" style="endArrow=classic;html=1;exitX=1;exitY=0.5;exitDx=0;exitDy=0;entryX=0;entryY=0.5;entryDx=0;entryDy=0;" edge="1" parent="1" source="HqNNQ10qHDL0JFHi53qa-90" target="HqNNQ10qHDL0JFHi53qa-183">
          <mxGeometry width="50" height="50" relative="1" as="geometry">
            <mxPoint x="-250" y="-80" as="sourcePoint" />
            <mxPoint x="-200" y="-130" as="targetPoint" />
          </mxGeometry>
        </mxCell>
        <mxCell id="HqNNQ10qHDL0JFHi53qa-228" value="" style="edgeStyle=orthogonalEdgeStyle;rounded=0;orthogonalLoop=1;jettySize=auto;html=1;" edge="1" parent="1" source="HqNNQ10qHDL0JFHi53qa-230" target="HqNNQ10qHDL0JFHi53qa-232">
          <mxGeometry relative="1" as="geometry" />
        </mxCell>
        <mxCell id="HqNNQ10qHDL0JFHi53qa-229" value="" style="edgeStyle=orthogonalEdgeStyle;rounded=0;orthogonalLoop=1;jettySize=auto;html=1;" edge="1" parent="1" source="HqNNQ10qHDL0JFHi53qa-230" target="HqNNQ10qHDL0JFHi53qa-234">
          <mxGeometry relative="1" as="geometry" />
        </mxCell>
        <mxCell id="HqNNQ10qHDL0JFHi53qa-230" value="Propagation level" style="whiteSpace=wrap;html=1;rounded=1;strokeColor=#6c8ebf;fillColor=#dae8fc;gradientColor=#7ea6e0;" vertex="1" parent="1">
          <mxGeometry x="-380" y="-280" width="120" height="60" as="geometry" />
        </mxCell>
        <mxCell id="HqNNQ10qHDL0JFHi53qa-231" value="" style="endArrow=classic;html=1;exitX=1;exitY=0.5;exitDx=0;exitDy=0;entryX=0;entryY=0.5;entryDx=0;entryDy=0;" edge="1" parent="1" source="HqNNQ10qHDL0JFHi53qa-90" target="HqNNQ10qHDL0JFHi53qa-230">
          <mxGeometry width="50" height="50" relative="1" as="geometry">
            <mxPoint x="-270" y="-390" as="sourcePoint" />
            <mxPoint x="-220" y="-440" as="targetPoint" />
          </mxGeometry>
        </mxCell>
        <mxCell id="HqNNQ10qHDL0JFHi53qa-232" value="&lt;div&gt;How existing transaction is re-used when calling&lt;/div&gt;&lt;div&gt;@Transactional method with transaction already running.&lt;/div&gt;" style="whiteSpace=wrap;html=1;rounded=0;" vertex="1" parent="1">
          <mxGeometry x="-480" y="-430" width="320" height="60" as="geometry" />
        </mxCell>
        <mxCell id="HqNNQ10qHDL0JFHi53qa-233" value="" style="edgeStyle=orthogonalEdgeStyle;rounded=0;orthogonalLoop=1;jettySize=auto;html=1;" edge="1" parent="1" source="HqNNQ10qHDL0JFHi53qa-234" target="HqNNQ10qHDL0JFHi53qa-247">
          <mxGeometry relative="1" as="geometry" />
        </mxCell>
        <mxCell id="HqNNQ10qHDL0JFHi53qa-234" value="REQUIRED" style="whiteSpace=wrap;html=1;rounded=0;" vertex="1" parent="1">
          <mxGeometry x="-180" y="-280" width="120" height="60" as="geometry" />
        </mxCell>
        <mxCell id="HqNNQ10qHDL0JFHi53qa-235" value="" style="edgeStyle=orthogonalEdgeStyle;rounded=0;orthogonalLoop=1;jettySize=auto;html=1;entryX=0;entryY=0.5;entryDx=0;entryDy=0;" edge="1" parent="1" source="HqNNQ10qHDL0JFHi53qa-236" target="HqNNQ10qHDL0JFHi53qa-248">
          <mxGeometry relative="1" as="geometry" />
        </mxCell>
        <mxCell id="HqNNQ10qHDL0JFHi53qa-236" value="SUPPORTS" style="whiteSpace=wrap;html=1;rounded=0;" vertex="1" parent="1">
          <mxGeometry x="-180" y="-220" width="120" height="60" as="geometry" />
        </mxCell>
        <mxCell id="HqNNQ10qHDL0JFHi53qa-237" value="" style="edgeStyle=orthogonalEdgeStyle;rounded=0;orthogonalLoop=1;jettySize=auto;html=1;entryX=0;entryY=0.5;entryDx=0;entryDy=0;" edge="1" parent="1" source="HqNNQ10qHDL0JFHi53qa-238" target="HqNNQ10qHDL0JFHi53qa-249">
          <mxGeometry relative="1" as="geometry" />
        </mxCell>
        <mxCell id="HqNNQ10qHDL0JFHi53qa-238" value="MANDATORY" style="whiteSpace=wrap;html=1;rounded=0;" vertex="1" parent="1">
          <mxGeometry x="-180" y="-160" width="120" height="60" as="geometry" />
        </mxCell>
        <mxCell id="HqNNQ10qHDL0JFHi53qa-239" value="" style="edgeStyle=orthogonalEdgeStyle;rounded=0;orthogonalLoop=1;jettySize=auto;html=1;entryX=0;entryY=0.5;entryDx=0;entryDy=0;" edge="1" parent="1" source="HqNNQ10qHDL0JFHi53qa-240" target="HqNNQ10qHDL0JFHi53qa-250">
          <mxGeometry relative="1" as="geometry" />
        </mxCell>
        <mxCell id="HqNNQ10qHDL0JFHi53qa-240" value="REQUIRES_NEW" style="whiteSpace=wrap;html=1;rounded=0;" vertex="1" parent="1">
          <mxGeometry x="-180" y="-100" width="120" height="60" as="geometry" />
        </mxCell>
        <mxCell id="HqNNQ10qHDL0JFHi53qa-241" value="" style="edgeStyle=orthogonalEdgeStyle;rounded=0;orthogonalLoop=1;jettySize=auto;html=1;entryX=0;entryY=0.5;entryDx=0;entryDy=0;" edge="1" parent="1" source="HqNNQ10qHDL0JFHi53qa-242" target="HqNNQ10qHDL0JFHi53qa-251">
          <mxGeometry relative="1" as="geometry" />
        </mxCell>
        <mxCell id="HqNNQ10qHDL0JFHi53qa-242" value="NOT_SUPPORTED" style="whiteSpace=wrap;html=1;rounded=0;" vertex="1" parent="1">
          <mxGeometry x="-180" y="-40" width="120" height="60" as="geometry" />
        </mxCell>
        <mxCell id="HqNNQ10qHDL0JFHi53qa-243" value="" style="edgeStyle=orthogonalEdgeStyle;rounded=0;orthogonalLoop=1;jettySize=auto;html=1;entryX=0;entryY=0.5;entryDx=0;entryDy=0;" edge="1" parent="1" source="HqNNQ10qHDL0JFHi53qa-244" target="HqNNQ10qHDL0JFHi53qa-252">
          <mxGeometry relative="1" as="geometry" />
        </mxCell>
        <mxCell id="HqNNQ10qHDL0JFHi53qa-244" value="NEVER" style="whiteSpace=wrap;html=1;rounded=0;" vertex="1" parent="1">
          <mxGeometry x="-180" y="20" width="120" height="60" as="geometry" />
        </mxCell>
        <mxCell id="HqNNQ10qHDL0JFHi53qa-245" value="" style="edgeStyle=orthogonalEdgeStyle;rounded=0;orthogonalLoop=1;jettySize=auto;html=1;" edge="1" parent="1" source="HqNNQ10qHDL0JFHi53qa-246" target="HqNNQ10qHDL0JFHi53qa-253">
          <mxGeometry relative="1" as="geometry" />
        </mxCell>
        <mxCell id="HqNNQ10qHDL0JFHi53qa-246" value="NESTED" style="whiteSpace=wrap;html=1;rounded=0;" vertex="1" parent="1">
          <mxGeometry x="-180" y="80" width="120" height="60" as="geometry" />
        </mxCell>
        <mxCell id="HqNNQ10qHDL0JFHi53qa-247" value="support a current transaction, create a new one if none exists" style="whiteSpace=wrap;html=1;rounded=0;" vertex="1" parent="1">
          <mxGeometry x="20" y="-280" width="430" height="60" as="geometry" />
        </mxCell>
        <mxCell id="HqNNQ10qHDL0JFHi53qa-248" value="&lt;div&gt;support a current transaction, execute non-transactionally if none&lt;/div&gt;&lt;div&gt;exists&lt;/div&gt;" style="whiteSpace=wrap;html=1;rounded=0;" vertex="1" parent="1">
          <mxGeometry x="20" y="-220" width="430" height="60" as="geometry" />
        </mxCell>
        <mxCell id="HqNNQ10qHDL0JFHi53qa-249" value="support a current transaction, throw an exception if none exists" style="whiteSpace=wrap;html=1;rounded=0;" vertex="1" parent="1">
          <mxGeometry x="20" y="-160" width="430" height="60" as="geometry" />
        </mxCell>
        <mxCell id="HqNNQ10qHDL0JFHi53qa-250" value="&lt;div&gt;create a new transaction, and suspend the current transaction if&lt;/div&gt;&lt;div&gt;one exists&lt;/div&gt;" style="whiteSpace=wrap;html=1;rounded=0;" vertex="1" parent="1">
          <mxGeometry x="20" y="-100" width="430" height="60" as="geometry" />
        </mxCell>
        <mxCell id="HqNNQ10qHDL0JFHi53qa-251" value="&lt;div&gt;execute non-transactionally, suspend the current transaction if&lt;/div&gt;&lt;div&gt;one exists&lt;/div&gt;" style="whiteSpace=wrap;html=1;rounded=0;" vertex="1" parent="1">
          <mxGeometry x="20" y="-40" width="430" height="60" as="geometry" />
        </mxCell>
        <mxCell id="HqNNQ10qHDL0JFHi53qa-252" value="execute non-transactionally, throw an exception if a transaction exists" style="whiteSpace=wrap;html=1;rounded=0;" vertex="1" parent="1">
          <mxGeometry x="20" y="20" width="430" height="60" as="geometry" />
        </mxCell>
        <mxCell id="HqNNQ10qHDL0JFHi53qa-253" value="&lt;div&gt;execute within a nested transaction if a current transaction exists,&lt;/div&gt;&lt;div&gt;behave like REQUIRED else&lt;/div&gt;" style="whiteSpace=wrap;html=1;rounded=0;" vertex="1" parent="1">
          <mxGeometry x="20" y="80" width="430" height="60" as="geometry" />
        </mxCell>
        <mxCell id="HqNNQ10qHDL0JFHi53qa-254" value="" style="edgeStyle=orthogonalEdgeStyle;rounded=0;orthogonalLoop=1;jettySize=auto;html=1;" edge="1" parent="1" source="HqNNQ10qHDL0JFHi53qa-255" target="HqNNQ10qHDL0JFHi53qa-256">
          <mxGeometry relative="1" as="geometry" />
        </mxCell>
        <mxCell id="HqNNQ10qHDL0JFHi53qa-255" value="ASPECTJ" style="rounded=0;whiteSpace=wrap;html=1;gradientColor=#b3b3b3;fillColor=#f5f5f5;strokeColor=#666666;" vertex="1" parent="1">
          <mxGeometry x="-2235" y="-330" width="120" height="60" as="geometry" />
        </mxCell>
        <mxCell id="HqNNQ10qHDL0JFHi53qa-256" value="Have dependency to spring-aspects" style="rounded=0;whiteSpace=wrap;html=1;" vertex="1" parent="1">
          <mxGeometry x="-2035" y="-330" width="235" height="60" as="geometry" />
        </mxCell>
        <mxCell id="HqNNQ10qHDL0JFHi53qa-257" value="Include aspectj-maven-plugin" style="rounded=0;whiteSpace=wrap;html=1;" vertex="1" parent="1">
          <mxGeometry x="-2035" y="-270" width="235" height="60" as="geometry" />
        </mxCell>
        <mxCell id="HqNNQ10qHDL0JFHi53qa-258" value="&lt;div&gt;Configure Transaction Support with&lt;/div&gt;&lt;div&gt;@EnableTransactionManagement(mode = AdviceMode.ASPECTJ)&lt;/div&gt;" style="rounded=0;whiteSpace=wrap;html=1;" vertex="1" parent="1">
          <mxGeometry x="-2035" y="-390" width="235" height="60" as="geometry" />
        </mxCell>
        <mxCell id="HqNNQ10qHDL0JFHi53qa-259" value="Default is only rollback for unchecked exception" style="whiteSpace=wrap;html=1;rounded=1;gradientColor=#b3b3b3;fillColor=#f5f5f5;strokeColor=#666666;" vertex="1" parent="1">
          <mxGeometry x="-2270" y="-960" width="230" height="60" as="geometry" />
        </mxCell>
        <mxCell id="HqNNQ10qHDL0JFHi53qa-260" value="Define DataSource Bean" style="whiteSpace=wrap;html=1;rounded=1;gradientColor=#97d077;fillColor=#d5e8d4;strokeColor=#82b366;" vertex="1" parent="1">
          <mxGeometry x="-1300" y="165" width="230" height="60" as="geometry" />
        </mxCell>
        <mxCell id="HqNNQ10qHDL0JFHi53qa-261" value="" style="endArrow=classic;html=1;exitX=0.5;exitY=1;exitDx=0;exitDy=0;entryX=0.5;entryY=0;entryDx=0;entryDy=0;" edge="1" parent="1" source="HqNNQ10qHDL0JFHi53qa-155" target="HqNNQ10qHDL0JFHi53qa-260">
          <mxGeometry width="50" height="50" relative="1" as="geometry">
            <mxPoint x="-1160" y="80" as="sourcePoint" />
            <mxPoint x="-1110" y="30" as="targetPoint" />
          </mxGeometry>
        </mxCell>
        <mxCell id="HqNNQ10qHDL0JFHi53qa-262" value="Declare maven dependencies" style="whiteSpace=wrap;html=1;rounded=1;gradientColor=#97d077;fillColor=#d5e8d4;strokeColor=#82b366;" vertex="1" parent="1">
          <mxGeometry x="-900" y="95" width="230" height="60" as="geometry" />
        </mxCell>
        <mxCell id="HqNNQ10qHDL0JFHi53qa-263" value="JPA API - javax.persistence" style="whiteSpace=wrap;html=1;rounded=0;" vertex="1" parent="1">
          <mxGeometry x="-900" y="155" width="230" height="25" as="geometry" />
        </mxCell>
        <mxCell id="HqNNQ10qHDL0JFHi53qa-264" value="SPRING ORM&amp;nbsp;" style="whiteSpace=wrap;html=1;rounded=0;" vertex="1" parent="1">
          <mxGeometry x="-900" y="180" width="230" height="30" as="geometry" />
        </mxCell>
        <mxCell id="HqNNQ10qHDL0JFHi53qa-265" value="ORM - hibernate" style="whiteSpace=wrap;html=1;rounded=0;" vertex="1" parent="1">
          <mxGeometry x="-900" y="210" width="230" height="30" as="geometry" />
        </mxCell>
        <mxCell id="HqNNQ10qHDL0JFHi53qa-266" value="Database Driver" style="whiteSpace=wrap;html=1;rounded=0;" vertex="1" parent="1">
          <mxGeometry x="-900" y="240" width="230" height="30" as="geometry" />
        </mxCell>
        <mxCell id="HqNNQ10qHDL0JFHi53qa-267" value="Database Driver" style="whiteSpace=wrap;html=1;rounded=0;" vertex="1" parent="1">
          <mxGeometry x="-900" y="270" width="230" height="30" as="geometry" />
        </mxCell>
        <mxCell id="HqNNQ10qHDL0JFHi53qa-268" value="" style="endArrow=classic;html=1;exitX=0.5;exitY=1;exitDx=0;exitDy=0;entryX=0.5;entryY=0;entryDx=0;entryDy=0;" edge="1" parent="1" source="HqNNQ10qHDL0JFHi53qa-155" target="HqNNQ10qHDL0JFHi53qa-262">
          <mxGeometry width="50" height="50" relative="1" as="geometry">
            <mxPoint x="-1160" y="200" as="sourcePoint" />
            <mxPoint x="-1110" y="150" as="targetPoint" />
          </mxGeometry>
        </mxCell>
        <mxCell id="HqNNQ10qHDL0JFHi53qa-269" value="EntityManagerFactoryBean" style="whiteSpace=wrap;html=1;rounded=1;gradientColor=#97d077;fillColor=#d5e8d4;strokeColor=#82b366;" vertex="1" parent="1">
          <mxGeometry x="-1150" y="255" width="230" height="60" as="geometry" />
        </mxCell>
        <mxCell id="HqNNQ10qHDL0JFHi53qa-270" value="" style="endArrow=classic;html=1;exitX=0.5;exitY=1;exitDx=0;exitDy=0;" edge="1" parent="1" source="HqNNQ10qHDL0JFHi53qa-155">
          <mxGeometry width="50" height="50" relative="1" as="geometry">
            <mxPoint x="-1210" y="350" as="sourcePoint" />
            <mxPoint x="-1030" y="260" as="targetPoint" />
          </mxGeometry>
        </mxCell>
        <mxCell id="HqNNQ10qHDL0JFHi53qa-271" value="&lt;div&gt;recommended when working with multiple databases and Entity&lt;/div&gt;&lt;div&gt;Managers&lt;/div&gt;" style="whiteSpace=wrap;html=1;rounded=0;" vertex="1" parent="1">
          <mxGeometry x="-2190" y="35" width="230" height="60" as="geometry" />
        </mxCell>
        <mxCell id="HqNNQ10qHDL0JFHi53qa-272" value="&lt;div&gt;recommended when working with one database and one Entity&lt;/div&gt;&lt;div&gt;Manager&lt;/div&gt;" style="whiteSpace=wrap;html=1;rounded=0;" vertex="1" parent="1">
          <mxGeometry x="-2190" y="155" width="230" height="60" as="geometry" />
        </mxCell>
      </root>
    </mxGraphModel>
  </diagram>
</mxfile>
